SplineFontDB: 3.0
FontName: Coda-Heavy
FullName: Coda-Heavy
FamilyName: Coda
Weight: Black
Copyright: Copyright (c) 2009 by vernon adams. All rights reserved.
Version: 1.000;PS 001.001;hotconv 1.0.56
ItalicAngle: 0
UnderlinePosition: -103
UnderlineWidth: 102
Ascent: 1638
Descent: 410
sfntRevision: 0x00010000
LayerCount: 2
Layer: 0 1 "Back"  1
Layer: 1 1 "Fore"  0
NeedsXUIDChange: 1
XUID: [1021 14 500265001 3349484]
FSType: 256
OS2Version: 2
OS2_WeightWidthSlopeOnly: 0
OS2_UseTypoMetrics: 1
CreationTime: 1313148003
ModificationTime: 1317661634
PfmFamily: 17
TTFWeight: 900
TTFWidth: 1
LineGap: 0
VLineGap: 0
Panose: 2 0 5 5 2 0 0 2 0 4
OS2TypoAscent: 72
OS2TypoAOffset: 1
OS2TypoDescent: 2
OS2TypoDOffset: 1
OS2TypoLinegap: 0
OS2WinAscent: 0
OS2WinAOffset: 1
OS2WinDescent: -149
OS2WinDOffset: 1
HheadAscent: -440
HheadAOffset: 1
HheadDescent: 298
HheadDOffset: 1
OS2SubXSize: 1331
OS2SubYSize: 1228
OS2SubXOff: 0
OS2SubYOff: 153
OS2SupXSize: 1331
OS2SupYSize: 1228
OS2SupXOff: 0
OS2SupYOff: 716
OS2StrikeYSize: 102
OS2StrikeYPos: 780
OS2Vendor: 'newt'
OS2CodePages: 20000093.00000000
OS2UnicodeRanges: 00000007.00000000.00000000.00000000
Lookup: 258 0 0 "'kern' Horizontal Kerning lookup 0"  {"'kern' Horizontal Kerning lookup 0 subtable"  } ['kern' ('DFLT' <'dflt' > ) ]
DEI: 91125
KernClass2: 2+ 3 "'kern' Horizontal Kerning lookup 0 subtable" 
 1 A
 1 T
 1 T
 11 a c d e o q
 0 {} -107 {} -17 {} 0 {} 0 {} -102 {}
ShortTable: maxp 16
  1
  0
  334
  142
  5
  137
  4
  1
  0
  0
  0
  0
  0
  0
  3
  1
EndShort

StartChar: numbersign
Encoding: 35 35 3
Width: 1498
Flags: W
LayerCount: 2
Fore
SplineSet
1366 419 m 1,0,-1
 1049 419 l 1,1,-1
 958 0 l 1,2,-1
 765 0 l 1,3,-1
 856 419 l 1,4,-1
 502 419 l 1,5,-1
 411 0 l 1,6,-1
 218 0 l 1,7,-1
 309 419 l 1,8,-1
 -5 419 l 1,9,-1
 31 568 l 1,10,-1
 342 568 l 1,11,-1
 430 972 l 1,12,-1
 122 972 l 1,13,-1
 158 1135 l 1,14,-1
 466 1135 l 1,15,-1
 546 1499 l 1,16,-1
 739 1499 l 1,17,-1
 659 1135 l 1,18,-1
 1013 1135 l 1,19,-1
 1093 1499 l 1,20,-1
 1286 1499 l 1,21,-1
 1206 1135 l 1,22,-1
 1517 1135 l 1,23,-1
 1487 972 l 1,24,-1
 1170 972 l 1,25,-1
 1082 568 l 1,26,-1
 1399 568 l 1,27,-1
 1366 419 l 1,0,-1
535 568 m 1,28,-1
 889 568 l 1,29,-1
 977 972 l 1,30,-1
 623 972 l 1,31,-1
 535 568 l 1,28,-1
EndSplineSet
EndChar

StartChar: dollar
Encoding: 36 36 4
Width: 1228
Flags: W
LayerCount: 2
Fore
SplineSet
580 1632 m 1,0,-1
 662 1632 l 1,1,-1
 662 -115 l 1,2,-1
 580 -115 l 1,3,-1
 580 1632 l 1,0,-1
915 1106 m 1,4,5
 915 1317.11621094 915 1317.11621094 738 1334.5 c 0,6,7
 682 1340 682 1340 549.440429688 1340 c 128,-1,8
 416.879882812 1340 416.879882812 1340 365.940429688 1301.40917969 c 128,-1,9
 315 1262.81835938 315 1262.81835938 315 1138.90917969 c 128,-1,10
 315 1015 315 1015 329.5 975.5 c 0,11,12
 367.630859375 871.625 367.630859375 871.625 563.696289062 864.620117188 c 128,-1,13
 759.76171875 857.614257812 759.76171875 857.614257812 857 834.5 c 0,14,15
 1149 765.08984375 1149 765.08984375 1149 512.590820312 c 128,-1,16
 1149 260.090820312 1149 260.090820312 1084.875 160.98828125 c 128,-1,17
 1020.75 61.8857421875 1020.75 61.8857421875 850.565429688 17.6103515625 c 128,-1,18
 680.380859375 -26.6650390625 680.380859375 -26.6650390625 487.190429688 2.6669921875 c 128,-1,19
 294 32 294 32 224.5 76 c 0,20,21
 78 168.748046875 78 168.748046875 78 419 c 2,22,-1
 78 436 l 1,23,-1
 287 436 l 1,24,25
 286 427 286 427 286 418.5 c 2,26,-1
 286 402 l 2,27,28
 286 202.057617188 286 202.057617188 461.5 182 c 0,29,30
 514 176 514 176 657.009765625 176 c 128,-1,31
 800.01953125 176 800.01953125 176 871.009765625 217.477539062 c 128,-1,32
 942 258.955078125 942 258.955078125 942 426.958984375 c 128,-1,33
 942 594.962890625 942 594.962890625 869.873046875 640.375976562 c 128,-1,34
 797.747070312 685.7890625 797.747070312 685.7890625 621.590820312 691.422851562 c 128,-1,35
 445.435546875 697.056640625 445.435546875 697.056640625 365.5 716.5 c 0,36,37
 97 781.810546875 97 781.810546875 97 1063.55859375 c 128,-1,38
 97 1345.30664062 97 1345.30664062 213.436523438 1424.15332031 c 128,-1,39
 329.872070312 1503 329.872070312 1503 551.602539062 1503 c 128,-1,40
 773.333007812 1503 773.333007812 1503 866.5 1481.5 c 0,41,42
 1118.55078125 1423.33398438 1118.55078125 1423.33398438 1122 1106 c 1,43,-1
 915 1106 l 1,4,5
EndSplineSet
EndChar

StartChar: percent
Encoding: 37 37 5
Width: 2384
Flags: W
LayerCount: 2
Fore
SplineSet
88 1129 m 2,0,1
 88 1298.421875 88 1298.421875 162.198242188 1359.2109375 c 128,-1,2
 236.397460938 1420 236.397460938 1420 467.168945312 1420 c 0,3,4
 697.94140625 1420 697.94140625 1420 773.970703125 1358.45214844 c 128,-1,5
 850 1296.90429688 850 1296.90429688 850 1129 c 2,6,-1
 850 795 l 2,7,8
 850 625.286132812 850 625.286132812 774.470703125 564.142578125 c 128,-1,9
 698.94140625 503 698.94140625 503 467.779296875 503 c 0,10,11
 236.6171875 503 236.6171875 503 162.30859375 563.879882812 c 128,-1,12
 88 624.758789062 88 624.758789062 88 795 c 2,13,-1
 88 1129 l 2,0,1
468 1297 m 256,14,15
 306.451171875 1297 306.451171875 1297 279.725585938 1276.28710938 c 128,-1,16
 253 1255.57519531 253 1255.57519531 253 1131 c 2,17,-1
 253 782 l 2,18,19
 253 666.075195312 253 666.075195312 279.948242188 646.537109375 c 128,-1,20
 306.896484375 627 306.896484375 627 468 627 c 256,21,22
 629.103515625 627 629.103515625 627 656.051757812 646.537109375 c 128,-1,23
 683 666.075195312 683 666.075195312 683 782 c 2,24,-1
 683 1131 l 2,25,26
 683 1255.57519531 683 1255.57519531 656.274414062 1276.28710938 c 128,-1,27
 629.548828125 1297 629.548828125 1297 468 1297 c 256,14,15
1555 752 m 2,28,29
 1555 921.421875 1555 921.421875 1629.19824219 982.2109375 c 128,-1,30
 1703.39746094 1043 1703.39746094 1043 1934.16894531 1043 c 0,31,32
 2164.94140625 1043 2164.94140625 1043 2240.97070312 981.452148438 c 128,-1,33
 2317 919.904296875 2317 919.904296875 2317 752 c 2,34,-1
 2317 418 l 2,35,36
 2317 248.286132812 2317 248.286132812 2241.47070312 187.142578125 c 128,-1,37
 2165.94140625 126 2165.94140625 126 1934.77929688 126 c 0,38,39
 1703.6171875 126 1703.6171875 126 1629.30859375 186.879882812 c 128,-1,40
 1555 247.758789062 1555 247.758789062 1555 418 c 2,41,-1
 1555 752 l 2,28,29
1720 754 m 2,42,-1
 1720 405 l 2,43,44
 1720 289.075195312 1720 289.075195312 1746.94824219 269.537109375 c 128,-1,45
 1773.89648438 250 1773.89648438 250 1935 250 c 256,46,47
 2096.10351562 250 2096.10351562 250 2123.05175781 269.537109375 c 128,-1,48
 2150 289.075195312 2150 289.075195312 2150 405 c 2,49,-1
 2150 754 l 2,50,51
 2150 878.575195312 2150 878.575195312 2123.27441406 899.287109375 c 128,-1,52
 2096.54882812 920 2096.54882812 920 1935 920 c 256,53,54
 1773.45117188 920 1773.45117188 920 1746.72558594 899.287109375 c 128,-1,55
 1720 878.575195312 1720 878.575195312 1720 754 c 2,42,-1
1494 1557 m 1,56,-1
 1111 -38 l 1,57,-1
 932 -38 l 1,58,-1
 1317 1557 l 1,59,-1
 1494 1557 l 1,56,-1
EndSplineSet
EndChar

StartChar: ampersand
Encoding: 38 38 6
Width: 1517
Flags: W
LayerCount: 2
Fore
SplineSet
734 156 m 128,-1,1
 961.94140625 156 961.94140625 156 1034.48828125 169.552734375 c 128,-1,2
 1107.03515625 183.10546875 1107.03515625 183.10546875 1125.01757812 237.052734375 c 128,-1,3
 1143 291 1143 291 1143 466 c 2,4,-1
 1143 720 l 1,5,-1
 479 720 l 2,6,7
 358 720 358 720 341.5 687 c 128,-1,8
 325 654 325 654 319.5 611.22265625 c 128,-1,9
 314 568.444335938 314 568.444335938 314 457.22265625 c 128,-1,10
 314 346 314 346 316 303 c 128,-1,11
 318 260 318 260 329.5 232 c 0,12,13
 351.239257812 179.071289062 351.239257812 179.071289062 428.690429688 167.53515625 c 128,-1,0
 506.142578125 156 506.142578125 156 734 156 c 128,-1,1
1143 1157 m 1,14,15
 1143 1297.04394531 1143 1297.04394531 1107.5 1314.02148438 c 0,16,17
 1046.90917969 1343 1046.90917969 1343 793.668945312 1343 c 128,-1,18
 540.428710938 1343 540.428710938 1343 471.887695312 1331.97070312 c 128,-1,19
 403.346679688 1320.94042969 403.346679688 1320.94042969 385.672851562 1277.56152344 c 128,-1,20
 368 1234.18164062 368 1234.18164062 368 1085.56738281 c 128,-1,21
 368 936.952148438 368 936.952148438 383.404296875 902.4765625 c 128,-1,22
 398.80859375 868 398.80859375 868 482 868 c 2,23,-1
 1143 868 l 1,24,-1
 1143 1007 l 1,25,-1
 1334 1007 l 1,26,-1
 1334 869 l 1,27,-1
 1491 869 l 1,28,-1
 1491 720 l 1,29,-1
 1334 720 l 1,30,31
 1334 346 1334 346 1308.53125 218.655273438 c 128,-1,32
 1283.06152344 91.3095703125 1283.06152344 91.3095703125 1152.2890625 40.1806640625 c 128,-1,33
 1021.51660156 -10.9482421875 1021.51660156 -10.9482421875 731.258789062 -2.974609375 c 128,-1,34
 441 5 441 5 370 17.5 c 0,35,36
 95 65.9150390625 95 65.9150390625 95 375.373046875 c 0,37,38
 95 568.594726562 95 568.594726562 149.181640625 675.4921875 c 128,-1,39
 203.362304688 782.390625 203.362304688 782.390625 357 799 c 1,40,41
 150 823.982421875 150 823.982421875 150 1106.62695312 c 128,-1,42
 150 1389.27050781 150 1389.27050781 266.586914062 1445.13574219 c 128,-1,43
 383.173828125 1501 383.173828125 1501 712.182617188 1501 c 128,-1,44
 1041.19042969 1501 1041.19042969 1501 1145.68554688 1482.86425781 c 128,-1,45
 1250.18066406 1464.72851562 1250.18066406 1464.72851562 1292.09082031 1401.86425781 c 128,-1,46
 1334 1339 1334 1339 1334 1192 c 1,47,-1
 1333 1157 l 1,48,-1
 1143 1157 l 1,14,15
EndSplineSet
EndChar

StartChar: quotesingle
Encoding: 39 39 7
Width: 422
Flags: W
LayerCount: 2
Fore
SplineSet
320 1402.5 m 128,-1,1
 320 1368 320 1368 315 1335 c 128,-1,2
 310 1302 310 1302 302 1259.5 c 128,-1,3
 294 1217 294 1217 284.5 1168.5 c 128,-1,4
 275 1120 275 1120 266 1076.5 c 128,-1,5
 257 1033 257 1033 249.5 999.5 c 128,-1,6
 242 966 242 966 237.5 945.5 c 128,-1,7
 233 925 233 925 216 925 c 128,-1,8
 199 925 199 925 155 1089 c 0,9,10
 111 1253 111 1253 111 1376.5 c 0,11,12
 111 1500 111 1500 203.25 1500 c 0,13,14
 257 1500 257 1500 288.5 1468.5 c 128,-1,0
 320 1437 320 1437 320 1402.5 c 128,-1,1
EndSplineSet
EndChar

StartChar: parenleft
Encoding: 40 40 8
Width: 624
Flags: W
LayerCount: 2
Fore
SplineSet
108 746.299804688 m 256,0,1
 108 1722 108 1722 632 1722 c 2,2,-1
 728 1722 l 1,3,-1
 728 1577 l 1,4,-1
 660 1577 l 2,5,6
 317 1577 317 1577 317 742.87890625 c 0,7,8
 317 19 317 19 660 19 c 2,9,-1
 728 19 l 1,10,-1
 728 -125 l 1,11,-1
 632 -125 l 2,12,13
 108 -125 108 -125 108 746.299804688 c 256,0,1
EndSplineSet
EndChar

StartChar: parenright
Encoding: 41 41 9
Width: 628
Flags: W
LayerCount: 2
Fore
SplineSet
539 790 m 256,0,1
 539 212.0390625 539 212.0390625 272.5 -26 c 0,2,3
 161.663085938 -125 161.663085938 -125 15 -125 c 2,4,-1
 -81 -125 l 1,5,-1
 -81 19 l 1,6,-1
 -13 19 l 2,7,8
 221.333007812 19 221.333007812 19 303.5 503.5 c 0,9,10
 330 659.758789062 330 659.758789062 330 742.87890625 c 0,11,12
 330 873.666992188 330 873.666992188 315.5 994.5 c 0,13,14
 245.599609375 1577 245.599609375 1577 -13 1577 c 2,15,-1
 -81 1577 l 1,16,-1
 -81 1722 l 1,17,-1
 15 1722 l 2,18,19
 288.79296875 1722 288.79296875 1722 433 1373.5 c 0,20,21
 539 1117.33300781 539 1117.33300781 539 790 c 256,0,1
EndSplineSet
EndChar

StartChar: asterisk
Encoding: 42 42 10
Width: 1072
Flags: W
LayerCount: 2
Fore
SplineSet
1042 1006 m 128,-1,1
 1042 915 1042 915 944.446289062 915 c 128,-1,2
 846.892578125 915 846.892578125 915 726.446289062 950.5 c 128,-1,3
 606 986 606 986 564 997 c 1,4,5
 579 981 579 981 705.5 859.365234375 c 0,6,7
 832 737.73046875 832 737.73046875 832 681.150390625 c 0,8,9
 832 574 832 574 737.158203125 574 c 128,-1,10
 642.31640625 574 642.31640625 574 562 926.5 c 0,11,12
 553 966 553 966 547 988 c 1,13,14
 541 966 541 966 532 926.5 c 0,15,16
 451.68359375 574 451.68359375 574 354 574 c 0,17,18
 296.666992188 574 296.666992188 574 279.333007812 606.5 c 128,-1,19
 262 639 262 639 262 658.5 c 128,-1,20
 262 678 262 678 277.5 707.5 c 128,-1,21
 293 737 293 737 317.5 769.5 c 128,-1,22
 342 802 342 802 372.5 835.5 c 128,-1,23
 403 869 403 869 432.5 900 c 128,-1,24
 462 931 462 931 487.5 956 c 128,-1,25
 513 981 513 981 529 997 c 1,26,27
 223.36328125 915 223.36328125 915 158 915 c 0,28,29
 52 915 52 915 52 1006 c 128,-1,30
 52 1097 52 1097 148 1097 c 128,-1,31
 244 1097 244 1097 366.5 1059.5 c 128,-1,32
 489 1022 489 1022 530 1012 c 1,33,34
 262 1280 262 1280 262 1358 c 128,-1,35
 262 1436 262 1436 356.841796875 1436 c 128,-1,36
 451.68359375 1436 451.68359375 1436 532 1083.5 c 0,37,38
 541 1044 541 1044 547 1022 c 1,39,40
 553 1044 553 1044 562 1083.5 c 0,41,42
 642.31640625 1436 642.31640625 1436 740 1436 c 0,43,44
 797.333007812 1436 797.333007812 1436 814.666992188 1403.5 c 128,-1,45
 832 1371 832 1371 832 1351 c 128,-1,46
 832 1331 832 1331 816.5 1302 c 128,-1,47
 801 1273 801 1273 776.5 1240.5 c 128,-1,48
 752 1208 752 1208 721.5 1174 c 128,-1,49
 691 1140 691 1140 661.5 1109.5 c 128,-1,50
 632 1079 632 1079 606 1053.5 c 128,-1,51
 580 1028 580 1028 564 1012 c 1,52,53
 605 1022 605 1022 727.5 1059.5 c 128,-1,54
 850 1097 850 1097 946 1097 c 128,-1,0
 1042 1097 1042 1097 1042 1006 c 128,-1,1
EndSplineSet
EndChar

StartChar: plus
Encoding: 43 43 11
Width: 908
Flags: W
LayerCount: 2
Fore
SplineSet
558 1117 m 1,0,-1
 558 754 l 1,1,-1
 901 754 l 1,2,-1
 901 585 l 1,3,-1
 558 585 l 1,4,-1
 558 223 l 1,5,-1
 372 223 l 1,6,-1
 372 585 l 1,7,-1
 30 585 l 1,8,-1
 30 754 l 1,9,-1
 372 754 l 1,10,-1
 372 1117 l 1,11,-1
 558 1117 l 1,0,-1
EndSplineSet
EndChar

StartChar: comma
Encoding: 44 44 12
Width: 504
Flags: W
LayerCount: 2
Fore
SplineSet
270 0 m 1,0,1
 108 0 108 0 108 171.05859375 c 0,2,3
 108 222.116210938 108 222.116210938 153.5 265.5 c 128,-1,4
 199.122070312 309 199.122070312 309 272.620117188 309 c 128,-1,5
 346.1171875 309 346.1171875 309 389.05859375 256.857421875 c 128,-1,6
 432 204.713867188 432 204.713867188 432 131.857421875 c 128,-1,7
 432 59 432 59 408.5 -4.5 c 128,-1,8
 385 -68 385 -68 344 -118 c 128,-1,9
 303 -168 303 -168 245.5 -199.5 c 128,-1,10
 188 -231 188 -231 144 -231 c 128,-1,11
 100 -231 100 -231 78 -227 c 1,12,-1
 78 -159 l 1,13,14
 186.078125 -159 186.078125 -159 228.0390625 -105.5 c 128,-1,15
 270 -52 270 -52 270 -20 c 2,16,-1
 270 0 l 1,0,1
EndSplineSet
EndChar

StartChar: hyphen
Encoding: 45 45 13
Width: 1138
Flags: W
LayerCount: 2
Fore
SplineSet
1031 568 m 1,0,-1
 120 568 l 1,1,-1
 120 754 l 1,2,-1
 1031 754 l 1,3,-1
 1031 568 l 1,0,-1
EndSplineSet
EndChar

StartChar: period
Encoding: 46 46 14
Width: 484
Flags: W
LayerCount: 2
Fore
SplineSet
408 117 m 256,0,1
 408 -37 408 -37 234.280273438 -37 c 0,2,3
 183.560546875 -37 183.560546875 -37 138.780273438 6.7138671875 c 128,-1,4
 94 50.4287109375 94 50.4287109375 94 117 c 256,5,6
 94 221.771484375 94 221.771484375 187.5 259.5 c 0,7,8
 216 271 216 271 250 271 c 256,9,10
 357.473632812 271 357.473632812 271 396 179.5 c 0,11,12
 408 151 408 151 408 117 c 256,0,1
EndSplineSet
EndChar

StartChar: slash
Encoding: 47 47 15
Width: 600
Flags: W
LayerCount: 2
Fore
SplineSet
570 1499 m 1,0,-1
 212 0 l 1,1,-1
 19 0 l 1,2,-1
 377 1499 l 1,3,-1
 570 1499 l 1,0,-1
EndSplineSet
EndChar

StartChar: zero
Encoding: 48 48 16
Width: 1402
Flags: W
LayerCount: 2
Fore
SplineSet
130 608 m 2,0,-1
 130 922 l 2,1,2
 130 1269.06640625 130 1269.06640625 255.506835938 1401.03320312 c 128,-1,3
 381.013671875 1533 381.013671875 1533 715 1533 c 256,4,5
 1048.98632812 1533 1048.98632812 1533 1174.49316406 1401.03320312 c 128,-1,6
 1300 1269.06640625 1300 1269.06640625 1300 922 c 2,7,-1
 1300 608 l 2,8,9
 1300 244.564453125 1300 244.564453125 1179.4609375 103.782226562 c 128,-1,10
 1058.921875 -37 1058.921875 -37 715 -37 c 256,11,12
 371.078125 -37 371.078125 -37 250.5390625 103.782226562 c 128,-1,13
 130 244.564453125 130 244.564453125 130 608 c 2,0,-1
707.5 126 m 128,-1,15
 815 126 815 126 881.5 143 c 128,-1,16
 948 160 948 160 988 193 c 128,-1,17
 1028 226 1028 226 1047.5 273.5 c 128,-1,18
 1067 321 1067 321 1074 382 c 128,-1,19
 1081 443 1081 443 1080 516.5 c 128,-1,20
 1079 590 1079 590 1079 679.5 c 128,-1,21
 1079 769 1079 769 1083.5 858.5 c 128,-1,22
 1088 948 1088 948 1085.5 1026 c 0,23,24
 1074.28222656 1376 1074.28222656 1376 769.048828125 1376 c 0,25,26
 519.8828125 1376 519.8828125 1376 457.94140625 1324 c 128,-1,27
 396 1272 396 1272 376.5 1223 c 128,-1,28
 357 1174 357 1174 350.5 1111 c 128,-1,29
 344 1048 344 1048 345.5 973 c 128,-1,30
 347 898 347 898 347 810 c 128,-1,31
 347 722 347 722 342.5 636 c 128,-1,32
 338 550 338 550 340.5 473.5 c 128,-1,33
 343 397 343 397 358.5 333.5 c 128,-1,34
 374 270 374 270 415 223.5 c 128,-1,35
 456 177 456 177 528 151.5 c 128,-1,14
 600 126 600 126 707.5 126 c 128,-1,15
EndSplineSet
EndChar

StartChar: one
Encoding: 49 49 17
Width: 600
Flags: W
LayerCount: 2
Fore
SplineSet
34 1426 m 1,0,1
 196.919921875 1426 196.919921875 1426 267 1499 c 1,2,-1
 449 1499 l 1,3,-1
 449 0 l 1,4,-1
 228 0 l 1,5,-1
 228 1309 l 1,6,-1
 34 1309 l 1,7,-1
 34 1426 l 1,0,1
EndSplineSet
EndChar

StartChar: two
Encoding: 50 50 18
Width: 1186
Flags: W
LayerCount: 2
Fore
SplineSet
1067 185 m 1,0,-1
 1067 1 l 1,1,-1
 117 1 l 1,2,-1
 117 189 l 2,3,4
 117 503.942382812 117 503.942382812 593.286132812 759.341796875 c 0,5,6
 712 823 712 823 799 880.194335938 c 128,-1,7
 886 937.388671875 886 937.388671875 886 1003 c 2,8,-1
 886 1088 l 2,9,10
 886 1272.18554688 886 1272.18554688 842.262695312 1321.59277344 c 128,-1,11
 798.524414062 1371 798.524414062 1371 612.70703125 1371 c 128,-1,12
 426.888671875 1371 426.888671875 1371 372.002929688 1335.71679688 c 128,-1,13
 317.1171875 1300.43261719 317.1171875 1300.43261719 319 1131 c 1,14,-1
 102 1131 l 1,15,16
 102 1388.47753906 102 1388.47753906 222.370117188 1461.23925781 c 128,-1,17
 342.741210938 1534 342.741210938 1534 615.501953125 1534 c 128,-1,18
 888.262695312 1534 888.262695312 1534 991.631835938 1448.60839844 c 128,-1,19
 1095 1363.21777344 1095 1363.21777344 1095 1109.87890625 c 128,-1,20
 1095 856.541015625 1095 856.541015625 929 729.5 c 0,21,22
 849.732421875 668.8359375 849.732421875 668.8359375 749.366210938 619.91796875 c 0,23,24
 422.677734375 460.69140625 422.677734375 460.69140625 341 274 c 0,25,26
 329.177734375 246.977539062 329.177734375 246.977539062 330.588867188 222.989257812 c 128,-1,27
 332 199 332 199 332 185 c 1,28,-1
 1067 185 l 1,0,-1
EndSplineSet
EndChar

StartChar: three
Encoding: 51 51 19
Width: 1253
Flags: W
LayerCount: 2
Fore
SplineSet
1140 407.383789062 m 128,-1,1
 1140 118.266601562 1140 118.266601562 1001.68457031 30.6669921875 c 128,-1,2
 863.369140625 -56.9326171875 863.369140625 -56.9326171875 459.5 -33 c 0,3,4
 174.041992188 -16.083984375 174.041992188 -16.083984375 124.5 206 c 0,5,6
 110 271 110 271 110 363 c 1,7,-1
 327 363 l 1,8,9
 327 196.693359375 327 196.693359375 391.090820312 150.17578125 c 128,-1,10
 455.181640625 103.658203125 455.181640625 103.658203125 766.5 131.5 c 0,11,12
 886.674804688 142.247070312 886.674804688 142.247070312 909 245.5 c 0,13,14
 921 301 921 301 921 425.11328125 c 0,15,16
 921 549.225585938 921 549.225585938 893.065429688 606.8984375 c 128,-1,17
 865.129882812 664.5703125 865.129882812 664.5703125 800.798828125 676.78515625 c 128,-1,18
 736.466796875 689 736.466796875 689 565 689 c 1,19,-1
 565 847 l 1,20,21
 629 847 629 847 680.5 846 c 128,-1,22
 732 845 732 845 792.987304688 851.17578125 c 0,23,24
 921 864.139648438 921 864.139648438 921 1072.01269531 c 128,-1,25
 921 1279.88476562 921 1279.88476562 873.0859375 1325.44238281 c 128,-1,26
 825.172851562 1371 825.172851562 1371 629.375 1371 c 128,-1,27
 433.578125 1371 433.578125 1371 380.2890625 1335.73535156 c 128,-1,28
 327 1300.47070312 327 1300.47070312 327 1131 c 1,29,-1
 110 1131 l 1,30,31
 110 1388.47753906 110 1388.47753906 230.370117188 1461.23925781 c 128,-1,32
 350.741210938 1534 350.741210938 1534 583.776367188 1534 c 0,33,34
 816.8125 1534 816.8125 1534 924.349609375 1503.81445312 c 0,35,36
 1140 1443.28027344 1140 1443.28027344 1140 1131.640625 c 128,-1,37
 1140 820 1140 820 950 763 c 1,38,0
 1140 696.5 1140 696.5 1140 407.383789062 c 128,-1,1
EndSplineSet
EndChar

StartChar: four
Encoding: 52 52 20
Width: 1040
Flags: W
LayerCount: 2
Fore
SplineSet
713 392 m 1,0,-1
 47 392 l 1,1,-1
 47 564 l 1,2,-1
 561 1499 l 1,3,-1
 782 1499 l 1,4,-1
 278 552 l 1,5,-1
 713 552 l 1,6,-1
 713 986 l 1,7,-1
 934 986 l 1,8,-1
 934 0 l 1,9,-1
 713 0 l 1,10,-1
 713 392 l 1,0,-1
EndSplineSet
EndChar

StartChar: five
Encoding: 53 53 21
Width: 1291
Flags: W
LayerCount: 2
Fore
SplineSet
1108.33789062 1501 m 1,0,-1
 1108.33789062 1338 l 1,1,-1
 384.337890625 1338 l 1,2,-1
 354.337890625 813 l 1,3,4
 354.337890625 963 354.337890625 963 660.624023438 963 c 128,-1,5
 966.91015625 963 966.91015625 963 1076.12402344 867.4375 c 128,-1,6
 1185.33789062 771.875 1185.33789062 771.875 1185.33789062 475.831054688 c 128,-1,7
 1185.33789062 179.788085938 1185.33789062 179.788085938 1083.26757812 71.3935546875 c 128,-1,8
 981.196289062 -37 981.196289062 -37 679.654296875 -37 c 128,-1,9
 378.111328125 -37 378.111328125 -37 288.224609375 19.5 c 0,10,11
 128.823242188 119.6953125 128.823242188 119.6953125 136.337890625 394 c 1,12,-1
 344.337890625 394 l 1,13,14
 344.337890625 200.713867188 344.337890625 200.713867188 376.837890625 172.857421875 c 0,15,16
 473.8984375 89.6630859375 473.8984375 89.6630859375 692.120117188 111.705078125 c 128,-1,17
 910.342773438 133.748046875 910.342773438 133.748046875 939.840820312 177.51953125 c 128,-1,18
 969.337890625 221.290039062 969.337890625 221.290039062 969.337890625 326 c 2,19,-1
 969.337890625 446 l 2,20,21
 969.337890625 712.5 969.337890625 712.5 943.837890625 744.75 c 128,-1,22
 918.337890625 777 918.337890625 777 882.688476562 788.5 c 128,-1,23
 847.038085938 800 847.038085938 800 740.688476562 800 c 128,-1,24
 634.337890625 800 634.337890625 800 577.337890625 802 c 0,25,26
 370.360351562 809.262695312 370.360351562 809.262695312 356.337890625 641 c 1,27,-1
 145.337890625 641 l 1,28,-1
 165.337890625 1501 l 1,29,-1
 1108.33789062 1501 l 1,0,-1
EndSplineSet
EndChar

StartChar: six
Encoding: 54 54 22
Width: 1351
Flags: W
LayerCount: 2
Fore
SplineSet
1252 472.421875 m 128,-1,1
 1252 158.142578125 1252 158.142578125 1151.92089844 72.3603515625 c 128,-1,2
 1051.84082031 -13.421875 1051.84082031 -13.421875 929.920898438 -24.7109375 c 128,-1,3
 808 -36 808 -36 594.16796875 -36 c 128,-1,4
 380.336914062 -36 380.336914062 -36 260.16796875 59.955078125 c 128,-1,5
 140 155.91015625 140 155.91015625 140 455 c 2,6,-1
 140 1041 l 2,7,8
 140 1336.17675781 140 1336.17675781 263.92578125 1434.58789062 c 128,-1,9
 387.8515625 1533 387.8515625 1533 675.733398438 1533 c 128,-1,10
 963.615234375 1533 963.615234375 1533 1038.80761719 1490.5 c 128,-1,11
 1114 1448 1114 1448 1163 1379.859375 c 128,-1,12
 1212 1311.71875 1212 1311.71875 1212 1131 c 1,13,-1
 995 1131 l 1,14,15
 995 1312.70019531 995 1312.70019531 951.344726562 1344.34960938 c 128,-1,16
 907.689453125 1376 907.689453125 1376 686.5 1376 c 128,-1,17
 465.309570312 1376 465.309570312 1376 413.155273438 1319.89355469 c 128,-1,18
 361 1263.78808594 361 1263.78808594 361 1046 c 2,19,-1
 361 814 l 1,20,21
 378.857421875 964 378.857421875 964 709.578125 964 c 128,-1,22
 1040.29882812 964 1040.29882812 964 1146.14941406 875.349609375 c 128,-1,0
 1252 786.700195312 1252 786.700195312 1252 472.421875 c 128,-1,1
1024.5 227.7890625 m 128,-1,24
 1036 272.579101562 1036 272.579101562 1036 460.2109375 c 128,-1,25
 1036 647.841796875 1036 647.841796875 1020.8203125 709.359375 c 128,-1,26
 1005.640625 770.875976562 1005.640625 770.875976562 946.978515625 785.9375 c 128,-1,27
 888.315429688 801 888.315429688 801 753.658203125 801 c 128,-1,28
 619 801 619 801 560 799.5 c 128,-1,29
 501 798 501 798 463 790.5 c 0,30,31
 391.201171875 776.329101562 391.201171875 776.329101562 376.100585938 727.848632812 c 128,-1,32
 361 679.368164062 361 679.368164062 361 492.911132812 c 128,-1,33
 361 306.454101562 361 306.454101562 379.26953125 231.71484375 c 128,-1,34
 397.5390625 156.975585938 397.5390625 156.975585938 459.678710938 138.987304688 c 128,-1,35
 521.818359375 121 521.818359375 121 705 121 c 256,36,37
 951 121 951 121 982 152 c 128,-1,23
 1013 183 1013 183 1024.5 227.7890625 c 128,-1,24
EndSplineSet
EndChar

StartChar: seven
Encoding: 55 55 23
Width: 889
Flags: W
LayerCount: 2
Fore
SplineSet
11 1499 m 1,0,-1
 820 1499 l 1,1,-1
 820 1327 l 1,2,-1
 326 0 l 1,3,-1
 105 0 l 1,4,-1
 599 1339 l 1,5,-1
 11 1339 l 1,6,-1
 11 1499 l 1,0,-1
EndSplineSet
EndChar

StartChar: eight
Encoding: 56 56 24
Width: 1339
Flags: W
LayerCount: 2
Fore
SplineSet
684 1533 m 256,0,1
 956.704101562 1533 956.704101562 1533 1042.85253906 1476 c 0,2,3
 1199 1372.68457031 1199 1372.68457031 1199 1123.81445312 c 128,-1,4
 1199 874.944335938 1199 874.944335938 1098 802 c 1,5,6
 1249 697.461914062 1249 697.461914062 1249 499 c 0,7,8
 1249 151.349609375 1249 151.349609375 1159.95703125 68.9853515625 c 128,-1,9
 1070.91308594 -13.3798828125 1070.91308594 -13.3798828125 937.45703125 -24.6904296875 c 128,-1,10
 804 -36 804 -36 631.857421875 -36 c 0,11,12
 459.713867188 -36 459.713867188 -36 361.5 -14 c 0,13,14
 119 40.3203125 119 40.3203125 119 296.9375 c 128,-1,15
 119 553.555664062 119 553.555664062 141.827148438 640.637695312 c 128,-1,16
 164.655273438 727.720703125 164.655273438 727.720703125 269 802 c 1,17,18
 169 874.22265625 169 874.22265625 169 1123.453125 c 128,-1,19
 169 1372.68457031 169 1372.68457031 290.147460938 1452.84179688 c 128,-1,20
 411.295898438 1533 411.295898438 1533 684 1533 c 256,0,1
682.837890625 713 m 128,-1,22
 478.3125 713 478.3125 713 394 694 c 1,23,24
 336 641.799804688 336 641.799804688 336 456.723632812 c 0,25,26
 336 271.647460938 336 271.647460938 348.7578125 212.360351562 c 128,-1,27
 361.515625 153.073242188 361.515625 153.073242188 424.057617188 137.036132812 c 128,-1,28
 486.599609375 121 486.599609375 121 682.014648438 121 c 0,29,30
 877.428710938 121 877.428710938 121 941.625976562 138.284179688 c 128,-1,31
 1005.82324219 155.567382812 1005.82324219 155.567382812 1019.91210938 216.6171875 c 128,-1,32
 1034 277.666992188 1034 277.666992188 1034 466.333007812 c 128,-1,33
 1034 655 1034 655 991 698 c 1,34,21
 887.36328125 713 887.36328125 713 682.837890625 713 c 128,-1,22
1000 1050.83300781 m 128,-1,36
 1000 1188 1000 1188 995 1246 c 128,-1,37
 990 1304 990 1304 952.737304688 1340 c 128,-1,38
 915.473632812 1376 915.473632812 1376 714.987304688 1376 c 0,39,40
 514.5 1376 514.5 1376 455.748046875 1359.21386719 c 128,-1,41
 396.995117188 1342.42675781 396.995117188 1342.42675781 382.498046875 1290.87988281 c 128,-1,42
 368 1239.33300781 368 1239.33300781 368 1076.5 c 128,-1,43
 368 913.666992188 368 913.666992188 408 863 c 1,44,-1
 684 864 l 257,45,-1
 960 863 l 1,46,35
 1000 913.666992188 1000 913.666992188 1000 1050.83300781 c 128,-1,36
EndSplineSet
EndChar

StartChar: nine
Encoding: 57 57 25
Width: 1360
Flags: W
LayerCount: 2
Fore
SplineSet
122 1027.15039062 m 128,-1,1
 122 1339.53515625 122 1339.53515625 224.1171875 1425.02832031 c 128,-1,2
 326.233398438 1510.52148438 326.233398438 1510.52148438 449.1171875 1521.76074219 c 128,-1,3
 572 1533 572 1533 787.33203125 1533 c 128,-1,4
 1002.66308594 1533 1002.66308594 1533 1122.83203125 1437.04492188 c 128,-1,5
 1243 1341.08984375 1243 1341.08984375 1243 1042 c 2,6,-1
 1243 456 l 2,7,8
 1243 160.823242188 1243 160.823242188 1119.07421875 62.412109375 c 128,-1,9
 995.1484375 -36 995.1484375 -36 704.583984375 -36 c 128,-1,10
 414.01953125 -36 414.01953125 -36 338.009765625 6.5 c 128,-1,11
 262 49 262 49 212 116.423828125 c 128,-1,12
 162 183.848632812 162 183.848632812 162 366 c 1,13,-1
 379 366 l 1,14,15
 379 183.8046875 379 183.8046875 423.396484375 152.40234375 c 128,-1,16
 467.79296875 121 467.79296875 121 692.741210938 121 c 128,-1,17
 917.690429688 121 917.690429688 121 969.844726562 177.106445312 c 128,-1,18
 1022 233.211914062 1022 233.211914062 1022 451 c 2,19,-1
 1022 683 l 1,20,21
 1004.14257812 533 1004.14257812 533 685.153320312 533 c 128,-1,22
 366.1640625 533 366.1640625 533 244.08203125 623.883789062 c 128,-1,0
 122 714.766601562 122 714.766601562 122 1027.15039062 c 128,-1,1
353.581054688 1285.10546875 m 128,-1,24
 338 1224.42089844 338 1224.42089844 338 1036.7890625 c 128,-1,25
 338 849.158203125 338 849.158203125 353.174804688 787.66015625 c 128,-1,26
 368.349609375 726.163085938 368.349609375 726.163085938 428.674804688 711.081054688 c 128,-1,27
 489 696 489 696 626.5 696 c 128,-1,28
 764 696 764 696 823 697.5 c 128,-1,29
 882 699 882 699 920 706.5 c 0,30,31
 991.798828125 720.670898438 991.798828125 720.670898438 1006.89941406 769.151367188 c 128,-1,32
 1022 817.631835938 1022 817.631835938 1022 1004.08886719 c 128,-1,33
 1022 1190.54589844 1022 1190.54589844 1003.73046875 1265.28515625 c 128,-1,34
 985.4609375 1340.02441406 985.4609375 1340.02441406 923.321289062 1358.01269531 c 128,-1,35
 861.181640625 1376 861.181640625 1376 675.590820312 1376 c 128,-1,36
 490 1376 490 1376 429.581054688 1360.89550781 c 128,-1,23
 369.162109375 1345.79101562 369.162109375 1345.79101562 353.581054688 1285.10546875 c 128,-1,24
EndSplineSet
EndChar

StartChar: colon
Encoding: 58 58 26
Width: 543
Flags: W
LayerCount: 2
Fore
SplineSet
443 1079 m 256,0,1
 443 925 443 925 269.280273438 925 c 0,2,3
 218.560546875 925 218.560546875 925 173.780273438 968.713867188 c 128,-1,4
 129 1012.42871094 129 1012.42871094 129 1079 c 256,5,6
 129 1183.77148438 129 1183.77148438 222.5 1221.5 c 0,7,8
 251 1233 251 1233 285 1233 c 256,9,10
 392.473632812 1233 392.473632812 1233 431 1141.5 c 0,11,12
 443 1113 443 1113 443 1079 c 256,0,1
443 288 m 256,13,14
 443 134 443 134 269.280273438 134 c 0,15,16
 218.560546875 134 218.560546875 134 173.780273438 177.713867188 c 128,-1,17
 129 221.428710938 129 221.428710938 129 288 c 256,18,19
 129 392.771484375 129 392.771484375 222.5 430.5 c 0,20,21
 251 442 251 442 285 442 c 256,22,23
 392.473632812 442 392.473632812 442 431 350.5 c 0,24,25
 443 322 443 322 443 288 c 256,13,14
EndSplineSet
EndChar

StartChar: semicolon
Encoding: 59 59 27
Width: 552
Flags: W
LayerCount: 2
Fore
SplineSet
292 130 m 1,0,1
 130 130 130 130 130 301.05859375 c 0,2,3
 130 352.116210938 130 352.116210938 175.5 395.5 c 128,-1,4
 221.122070312 439 221.122070312 439 294.620117188 439 c 128,-1,5
 368.1171875 439 368.1171875 439 411.05859375 386.857421875 c 128,-1,6
 454 334.713867188 454 334.713867188 454 261.857421875 c 128,-1,7
 454 189 454 189 430.5 125.5 c 128,-1,8
 407 62 407 62 366 12 c 128,-1,9
 325 -38 325 -38 267.5 -69.5 c 128,-1,10
 210 -101 210 -101 166 -101 c 128,-1,11
 122 -101 122 -101 100 -97 c 1,12,-1
 100 -29 l 1,13,14
 208.078125 -29 208.078125 -29 250.0390625 24.5 c 128,-1,15
 292 78 292 78 292 110 c 2,16,-1
 292 130 l 1,0,1
450 1079 m 256,17,18
 450 925 450 925 276.280273438 925 c 0,19,20
 225.560546875 925 225.560546875 925 180.780273438 968.713867188 c 128,-1,21
 136 1012.42871094 136 1012.42871094 136 1079 c 256,22,23
 136 1183.77148438 136 1183.77148438 229.5 1221.5 c 0,24,25
 258 1233 258 1233 292 1233 c 256,26,27
 399.473632812 1233 399.473632812 1233 438 1141.5 c 0,28,29
 450 1113 450 1113 450 1079 c 256,17,18
EndSplineSet
EndChar

StartChar: less
Encoding: 60 60 28
Width: 942
Flags: W
LayerCount: 2
Fore
SplineSet
846 1276 m 1,0,-1
 846 1045 l 1,1,-1
 251 766 l 1,2,-1
 846 478 l 1,3,-1
 846 257 l 1,4,-1
 56 676 l 1,5,-1
 56 838 l 1,6,-1
 846 1276 l 1,0,-1
EndSplineSet
EndChar

StartChar: equal
Encoding: 61 61 29
Width: 1172
Flags: W
LayerCount: 2
Fore
SplineSet
1049 854 m 1,0,-1
 1049 668 l 1,1,-1
 138 668 l 1,2,-1
 138 854 l 1,3,-1
 1049 854 l 1,0,-1
1049 305 m 1,4,-1
 138 305 l 1,5,-1
 138 491 l 1,6,-1
 1049 491 l 1,7,-1
 1049 305 l 1,4,-1
EndSplineSet
EndChar

StartChar: greater
Encoding: 62 62 30
Width: 922
Flags: W
LayerCount: 2
Fore
SplineSet
922 676 m 1,0,-1
 132 257 l 1,1,-1
 132 478 l 1,2,-1
 727 766 l 1,3,-1
 132 1045 l 1,4,-1
 132 1276 l 1,5,-1
 922 838 l 1,6,-1
 922 676 l 1,0,-1
EndSplineSet
EndChar

StartChar: question
Encoding: 63 63 31
Width: 785
Flags: W
LayerCount: 2
Fore
SplineSet
708 1223.57714844 m 128,-1,1
 708 1098 708 1098 683 1037.5 c 0,2,3
 641.293945312 936.5703125 641.293945312 936.5703125 497.31640625 784.768554688 c 128,-1,4
 353.338867188 632.965820312 353.338867188 632.965820312 337 490 c 1,5,6
 313 482 313 482 287.357421875 482 c 128,-1,7
 261.713867188 482 261.713867188 482 245 495 c 1,8,9
 245 702.799804688 245 702.799804688 368.5 879.5 c 128,-1,10
 492 1056.20019531 492 1056.20019531 492 1154 c 0,11,12
 492 1350 492 1350 289 1350 c 0,13,14
 210.599609375 1350 210.599609375 1350 37 1308 c 1,15,16
 13 1452 13 1452 10 1473 c 1,17,18
 186.22265625 1534 186.22265625 1534 348.594726562 1534 c 128,-1,19
 510.966796875 1534 510.966796875 1534 609.483398438 1441.57714844 c 128,-1,0
 708 1349.15429688 708 1349.15429688 708 1223.57714844 c 128,-1,1
440 118 m 256,20,21
 440 -36 440 -36 266.280273438 -36 c 0,22,23
 215.560546875 -36 215.560546875 -36 170.780273438 7.7138671875 c 128,-1,24
 126 51.4287109375 126 51.4287109375 126 118 c 256,25,26
 126 222.771484375 126 222.771484375 219.5 260.5 c 0,27,28
 248 272 248 272 282 272 c 256,29,30
 389.473632812 272 389.473632812 272 428 180.5 c 0,31,32
 440 152 440 152 440 118 c 256,20,21
EndSplineSet
EndChar

StartChar: at
Encoding: 64 64 32
Width: 2075
Flags: W
LayerCount: 2
Fore
SplineSet
642 1017 m 0,0,1
 642 1266 642 1266 996 1266 c 0,2,3
 1211.90917969 1266 1211.90917969 1266 1291.5 1249 c 0,4,5
 1541 1195.70898438 1541 1195.70898438 1541 934 c 2,6,-1
 1541 421 l 2,7,8
 1541 307 1541 307 1542 215 c 1,9,10
 1684.17285156 215 1684.17285156 215 1730.07714844 238.35546875 c 0,11,12
 1799 273.420898438 1799 273.420898438 1799 658.7890625 c 128,-1,13
 1799 1044.15722656 1799 1044.15722656 1731.91796875 1200.36328125 c 128,-1,14
 1664.8359375 1356.56933594 1664.8359375 1356.56933594 1520.07324219 1414.28417969 c 128,-1,15
 1375.31152344 1472 1375.31152344 1472 1129.65527344 1472 c 0,16,17
 655.260742188 1472 655.260742188 1472 477.129882812 1296.66796875 c 128,-1,18
 299 1121.33496094 299 1121.33496094 299 705.6484375 c 128,-1,19
 299 289.961914062 299 289.961914062 356 156.481445312 c 128,-1,20
 413 23 413 23 476.5 -34 c 128,-1,21
 540 -91 540 -91 663.452148438 -133.5 c 128,-1,22
 786.904296875 -176 786.904296875 -176 1049.45214844 -176 c 128,-1,23
 1312 -176 1312 -176 1686 -77 c 1,24,-1
 1737 -224 l 1,25,26
 1449 -344 1449 -344 1092.15234375 -344 c 128,-1,27
 735.3046875 -344 735.3046875 -344 521.953125 -265.547851562 c 0,28,29
 86 -105.2421875 86 -105.2421875 86 626.482421875 c 128,-1,30
 86 1358.20800781 86 1358.20800781 546 1547.5 c 0,31,32
 758.634765625 1635 758.634765625 1635 1077.33789062 1635 c 128,-1,33
 1396.04199219 1635 1396.04199219 1635 1592.10449219 1564.76855469 c 128,-1,34
 1788.16796875 1494.53710938 1788.16796875 1494.53710938 1898.58398438 1307.22363281 c 128,-1,35
 2009 1119.91113281 2009 1119.91113281 2009 780.037109375 c 128,-1,36
 2009 440.163085938 2009 440.163085938 1968.54101562 296.204101562 c 128,-1,37
 1928.08203125 152.24609375 1928.08203125 152.24609375 1847.3828125 119.623046875 c 128,-1,38
 1766.68457031 87 1766.68457031 87 1591.32128906 87 c 128,-1,39
 1415.95703125 87 1415.95703125 87 1400 212 c 1,40,41
 1371.90722656 61 1371.90722656 61 970 61 c 0,42,43
 755.588867188 61 755.588867188 61 663.794921875 129.377929688 c 128,-1,44
 572 197.754882812 572 197.754882812 572 416.024414062 c 128,-1,45
 572 634.293945312 572 634.293945312 660.73046875 702.147460938 c 128,-1,46
 749.461914062 770 749.461914062 770 913.9453125 770 c 128,-1,47
 1078.42871094 770 1078.42871094 770 1320 732 c 1,48,-1
 1320 959 l 2,49,50
 1320 1066.5 1320 1066.5 1287.55566406 1084.75 c 128,-1,51
 1255.11132812 1103 1255.11132812 1103 1072.96484375 1103 c 128,-1,52
 890.818359375 1103 890.818359375 1103 861.5 1088 c 128,-1,53
 832 1072.90722656 832 1072.90722656 832 1010.953125 c 128,-1,54
 832 949 832 949 836 903 c 1,55,-1
 655 883 l 1,56,57
 642 948 642 948 642 1017 c 0,0,1
1320 311 m 2,58,-1
 1320 624 l 1,59,-1
 988 624 l 2,60,61
 828.666992188 624 828.666992188 624 801.833007812 595.825195312 c 128,-1,62
 775 567.650390625 775 567.650390625 775 459.825195312 c 0,63,64
 775 293.799804688 775 293.799804688 787.369140625 257.517578125 c 128,-1,65
 799.737304688 221.236328125 799.737304688 221.236328125 850.069335938 213.118164062 c 128,-1,66
 900.400390625 205 900.400390625 205 1073.17871094 205 c 128,-1,67
 1245.95605469 205 1245.95605469 205 1282.97851562 222.377929688 c 128,-1,68
 1320 239.754882812 1320 239.754882812 1320 311 c 2,58,-1
EndSplineSet
EndChar

StartChar: A
Encoding: 65 65 33
Width: 1309
Flags: W
LayerCount: 2
Fore
SplineSet
1048 0 m 1,0,-1
 928 389 l 1,1,-1
 352 389 l 1,2,-1
 236 0 l 1,3,-1
 32 0 l 1,4,-1
 502 1499 l 1,5,-1
 792 1499 l 1,6,-1
 1269 0 l 1,7,-1
 1048 0 l 1,0,-1
635 1373 m 1,8,-1
 393 521 l 1,9,-1
 886 521 l 1,10,-1
 635 1373 l 1,8,-1
EndSplineSet
EndChar

StartChar: B
Encoding: 66 66 34
Width: 1402
Flags: W
LayerCount: 2
Fore
SplineSet
1297 417 m 0,0,1
 1297 31.1962890625 1297 31.1962890625 858 4.5 c 0,2,3
 784 0 784 0 707 0 c 2,4,-1
 163 0 l 1,5,-1
 163 1499 l 1,6,-1
 665 1499 l 2,7,8
 935.634765625 1499 935.634765625 1499 1026.81738281 1455.5 c 128,-1,9
 1118 1412 1118 1412 1180 1342.15234375 c 128,-1,10
 1242 1272.30371094 1242 1272.30371094 1242 1068.28125 c 0,11,12
 1242 864.258789062 1242 864.258789062 991 808 c 1,13,14
 1297 762.099609375 1297 762.099609375 1297 417 c 0,0,1
384 721 m 1,15,-1
 384 157 l 1,16,-1
 747 157 l 2,17,18
 920.938476562 157 920.938476562 157 998.469726562 201.174804688 c 0,19,20
 1076 245.348632812 1076 245.348632812 1076 422.333007812 c 0,21,22
 1076 599.317382812 1076 599.317382812 1002.6328125 660.158203125 c 128,-1,23
 929.264648438 721 929.264648438 721 733 721 c 2,24,-1
 384 721 l 1,15,-1
384 867 m 1,25,-1
 714 867 l 2,26,27
 876.022460938 867 876.022460938 867 949.51171875 905.958007812 c 128,-1,28
 1023 944.916015625 1023 944.916015625 1023 1092.01464844 c 0,29,30
 1023 1239.11230469 1023 1239.11230469 956.590820312 1290.55664062 c 128,-1,31
 890.181640625 1342 890.181640625 1342 737 1342 c 2,32,-1
 384 1342 l 1,33,-1
 384 867 l 1,25,-1
EndSplineSet
EndChar

StartChar: C
Encoding: 67 67 35
Width: 1456
Flags: W
LayerCount: 2
Fore
SplineSet
1320 534 m 1,0,1
 1320 147.302734375 1320 147.302734375 1218.71679688 62.5068359375 c 128,-1,2
 1117.43359375 -22.2880859375 1117.43359375 -22.2880859375 990.216796875 -29.1435546875 c 128,-1,3
 863 -36 863 -36 673.451171875 -36 c 128,-1,4
 483.90234375 -36 483.90234375 -36 361.887695312 -0.009765625 c 128,-1,5
 239.873046875 35.98046875 239.873046875 35.98046875 184.936523438 166.337890625 c 128,-1,6
 130 296.6953125 130 296.6953125 130 594 c 2,7,-1
 130 903 l 2,8,9
 130 1331.16699219 130 1331.16699219 251.099609375 1432.08300781 c 128,-1,10
 372.200195312 1533 372.200195312 1533 685.775390625 1533 c 128,-1,11
 999.3515625 1533 999.3515625 1533 1109.31933594 1500.70800781 c 128,-1,12
 1219.28808594 1468.41503906 1219.28808594 1468.41503906 1269.64355469 1349.98535156 c 128,-1,13
 1320 1231.55566406 1320 1231.55566406 1320 963 c 1,14,-1
 1109 963 l 1,15,16
 1105.97167969 1274.96289062 1105.97167969 1274.96289062 1073.48535156 1311.98144531 c 0,17,18
 1017.30566406 1376 1017.30566406 1376 773.74609375 1376 c 128,-1,19
 530.185546875 1376 530.185546875 1376 459.536132812 1354.56738281 c 128,-1,20
 388.88671875 1333.13378906 388.88671875 1333.13378906 369.943359375 1246.65429688 c 128,-1,21
 351 1160.17382812 351 1160.17382812 351 903 c 2,22,-1
 351 594 l 2,23,24
 351 241.571289062 351 241.571289062 389.5 196.786132812 c 128,-1,25
 428 152 428 152 494.577148438 131.802734375 c 128,-1,26
 561.153320312 111.60546875 561.153320312 111.60546875 762.077148438 118.302734375 c 128,-1,27
 963 125 963 125 1019.28125 141.595703125 c 128,-1,28
 1075.56347656 158.19140625 1075.56347656 158.19140625 1091.15332031 229.907226562 c 128,-1,29
 1106.74414062 301.622070312 1106.74414062 301.622070312 1109 534 c 1,30,-1
 1320 534 l 1,0,1
EndSplineSet
EndChar

StartChar: D
Encoding: 68 68 36
Width: 1490
Flags: W
LayerCount: 2
Fore
SplineSet
733 158 m 2,0,1
 956.759765625 158 956.759765625 158 1027.89648438 177.982421875 c 128,-1,2
 1099.03320312 197.963867188 1099.03320312 197.963867188 1116.87988281 273.232421875 c 128,-1,3
 1134.7265625 348.5 1134.7265625 348.5 1137 594 c 1,4,-1
 1137 903 l 1,5,6
 1134.72363281 1153.39453125 1134.72363281 1153.39453125 1116.87792969 1229.43457031 c 128,-1,7
 1099.03125 1305.47460938 1099.03125 1305.47460938 1029.453125 1324.23730469 c 128,-1,8
 959.875 1343 959.875 1343 733 1343 c 2,9,-1
 384 1342 l 1,10,-1
 384 159 l 1,11,-1
 733 158 l 2,0,1
163 0 m 1,12,-1
 163 1498 l 1,13,-1
 733 1499 l 2,14,15
 1004.18945312 1499 1004.18945312 1499 1125.90722656 1466.60058594 c 128,-1,16
 1247.625 1434.20019531 1247.625 1434.20019531 1302.8125 1309.79492188 c 128,-1,17
 1358 1185.38964844 1358 1185.38964844 1358 903 c 2,18,-1
 1358 594 l 2,19,20
 1358 192.291992188 1358 192.291992188 1236.55273438 96.1455078125 c 128,-1,21
 1115.10546875 0 1115.10546875 0 733 0 c 2,22,-1
 163 0 l 1,12,-1
EndSplineSet
EndChar

StartChar: E
Encoding: 69 69 37
Width: 1230
Flags: W
LayerCount: 2
Fore
SplineSet
384 703 m 1,0,-1
 384 160 l 1,1,-1
 1126 160 l 1,2,-1
 1126 0 l 1,3,-1
 163 0 l 1,4,-1
 163 1499 l 1,5,-1
 1108 1499 l 1,6,-1
 1108 1339 l 1,7,-1
 384 1339 l 1,8,-1
 384 863 l 1,9,-1
 1018 863 l 1,10,-1
 1018 703 l 1,11,-1
 384 703 l 1,0,-1
EndSplineSet
EndChar

StartChar: F
Encoding: 70 70 38
Width: 1087
Flags: W
LayerCount: 2
Fore
SplineSet
384 688 m 1,0,-1
 384 0 l 1,1,-1
 163 0 l 1,2,-1
 163 1499 l 1,3,-1
 1029 1499 l 1,4,-1
 1029 1339 l 1,5,-1
 384 1339 l 1,6,-1
 384 848 l 1,7,-1
 979 848 l 1,8,-1
 979 688 l 1,9,-1
 384 688 l 1,0,-1
EndSplineSet
EndChar

StartChar: G
Encoding: 71 71 39
Width: 1462
Flags: W
LayerCount: 2
Fore
SplineSet
130 594 m 2,0,-1
 130 903 l 2,1,2
 130 1331.16699219 130 1331.16699219 251.099609375 1432.08300781 c 128,-1,3
 372.200195312 1533 372.200195312 1533 685.775390625 1533 c 128,-1,4
 999.3515625 1533 999.3515625 1533 1109.31933594 1500.70800781 c 128,-1,5
 1219.28808594 1468.41503906 1219.28808594 1468.41503906 1269.64355469 1349.98535156 c 128,-1,6
 1320 1231.55566406 1320 1231.55566406 1320 963 c 1,7,-1
 1109 963 l 1,8,9
 1105.97167969 1274.96289062 1105.97167969 1274.96289062 1073.48535156 1311.98144531 c 0,10,11
 1017.30566406 1376 1017.30566406 1376 773.74609375 1376 c 128,-1,12
 530.185546875 1376 530.185546875 1376 459.536132812 1354.56738281 c 128,-1,13
 388.88671875 1333.13378906 388.88671875 1333.13378906 369.943359375 1246.65429688 c 128,-1,14
 351 1160.17382812 351 1160.17382812 351 903 c 2,15,-1
 351 594 l 2,16,17
 351 332.260742188 351 332.260742188 369.458984375 247.993164062 c 128,-1,18
 387.916992188 163.724609375 387.916992188 163.724609375 467.30078125 139.91015625 c 128,-1,19
 546.684570312 116.094726562 546.684570312 116.094726562 753.841796875 119.547851562 c 128,-1,20
 961 123 961 123 1016.79101562 132.298828125 c 128,-1,21
 1072.58300781 141.596679688 1072.58300781 141.596679688 1089.65917969 180.407226562 c 128,-1,22
 1106.73632812 219.21875 1106.73632812 219.21875 1109 346 c 1,23,-1
 1107 588 l 1,24,-1
 798 588 l 1,25,-1
 798 733 l 1,26,-1
 1307 733 l 1,27,-1
 1307 -1 l 1,28,-1
 1156 -1 l 1,29,-1
 1103 94 l 1,30,31
 1029.21582031 -36 1029.21582031 -36 756.559570312 -36 c 128,-1,32
 483.90234375 -36 483.90234375 -36 361.887695312 -0.009765625 c 128,-1,33
 239.873046875 35.98046875 239.873046875 35.98046875 184.936523438 166.337890625 c 128,-1,34
 130 296.6953125 130 296.6953125 130 594 c 2,0,-1
EndSplineSet
EndChar

StartChar: H
Encoding: 72 72 40
Width: 1492
Flags: W
LayerCount: 2
Fore
SplineSet
384 681 m 1,0,-1
 384 0 l 1,1,-1
 163 0 l 1,2,-1
 163 1499 l 1,3,-1
 384 1499 l 1,4,-1
 384 838 l 1,5,-1
 1109 838 l 1,6,-1
 1109 1499 l 1,7,-1
 1330 1499 l 1,8,-1
 1330 0 l 1,9,-1
 1109 0 l 1,10,-1
 1109 681 l 1,11,-1
 384 681 l 1,0,-1
EndSplineSet
EndChar

StartChar: I
Encoding: 73 73 41
Width: 546
Flags: W
LayerCount: 2
Fore
SplineSet
384 0 m 1,0,-1
 163 0 l 1,1,-1
 163 1499 l 1,2,-1
 384 1499 l 1,3,-1
 384 0 l 1,0,-1
EndSplineSet
EndChar

StartChar: J
Encoding: 74 74 42
Width: 636
Flags: W
LayerCount: 2
Fore
SplineSet
259 -153 m 0,0,1
 146.909179688 -153 146.909179688 -153 16 -129 c 1,2,-1
 16 45 l 1,3,-1
 253 45 l 1,4,-1
 253 1498 l 1,5,-1
 474 1498 l 1,6,-1
 474 45 l 2,7,8
 474 -153 474 -153 259 -153 c 0,0,1
EndSplineSet
EndChar

StartChar: K
Encoding: 75 75 43
Width: 1297
Flags: W
LayerCount: 2
Fore
SplineSet
384 0 m 1,0,-1
 163 0 l 1,1,-1
 163 1499 l 1,2,-1
 384 1499 l 1,3,-1
 384 815 l 1,4,-1
 962 1499 l 1,5,-1
 1223 1499 l 1,6,-1
 627 795 l 1,7,-1
 1293 0 l 1,8,-1
 1022 0 l 1,9,-1
 437 716 l 1,10,-1
 384 658 l 1,11,-1
 384 0 l 1,0,-1
EndSplineSet
EndChar

StartChar: L
Encoding: 76 76 44
Width: 1038
Flags: W
LayerCount: 2
Fore
SplineSet
163 0 m 1,0,-1
 163 1499 l 1,1,-1
 384 1499 l 1,2,-1
 384 160 l 1,3,-1
 989 160 l 1,4,-1
 989 0 l 1,5,-1
 163 0 l 1,0,-1
EndSplineSet
EndChar

StartChar: M
Encoding: 77 77 45
Width: 1793
Flags: W
LayerCount: 2
Fore
SplineSet
364 1163 m 1,0,-1
 304 0 l 1,1,-1
 132 0 l 1,2,-1
 192 1499 l 1,3,-1
 427 1499 l 1,4,-1
 892 319 l 1,5,-1
 1351 1499 l 1,6,-1
 1601 1499 l 1,7,-1
 1661 0 l 1,8,-1
 1452 0 l 1,9,-1
 1392 1163 l 1,10,-1
 953 0 l 1,11,-1
 822 0 l 1,12,-1
 364 1163 l 1,0,-1
EndSplineSet
EndChar

StartChar: N
Encoding: 78 78 46
Width: 1514
Flags: W
LayerCount: 2
Fore
SplineSet
1173 1499 m 1,0,-1
 1352 1499 l 1,1,-1
 1352 0 l 1,2,-1
 1129 0 l 1,3,-1
 345 1203 l 1,4,-1
 345 0 l 1,5,-1
 163 0 l 1,6,-1
 163 1499 l 1,7,-1
 387 1499 l 1,8,-1
 1173 278 l 1,9,-1
 1173 1499 l 1,0,-1
EndSplineSet
EndChar

StartChar: O
Encoding: 79 79 47
Width: 1514
Flags: W
LayerCount: 2
Fore
SplineSet
755 1376 m 256,0,1
 530.185546875 1376 530.185546875 1376 459.536132812 1354.56738281 c 128,-1,2
 388.88671875 1333.13378906 388.88671875 1333.13378906 369.943359375 1246.65429688 c 128,-1,3
 351 1160.17382812 351 1160.17382812 351 903 c 2,4,-1
 351 594 l 2,5,6
 351 241.571289062 351 241.571289062 389.5 196.786132812 c 128,-1,7
 428 152 428 152 479.092773438 136.5 c 128,-1,8
 530.185546875 121 530.185546875 121 755 121 c 256,9,10
 979.814453125 121 979.814453125 121 1050.46386719 142.432617188 c 128,-1,11
 1121.11328125 163.866210938 1121.11328125 163.866210938 1138.92285156 245.170898438 c 128,-1,12
 1156.73242188 326.475585938 1156.73242188 326.475585938 1159 594 c 1,13,-1
 1159 903 l 1,14,15
 1156.73242188 1170.52441406 1156.73242188 1170.52441406 1138.92285156 1251.82910156 c 128,-1,16
 1121.11328125 1333.13378906 1121.11328125 1333.13378906 1050.46386719 1354.56738281 c 128,-1,17
 979.814453125 1376 979.814453125 1376 755 1376 c 256,0,1
130 594 m 2,18,-1
 130 903 l 2,19,20
 130 1331.16699219 130 1331.16699219 251.099609375 1432.08300781 c 0,21,22
 372.200195312 1533 372.200195312 1533 755 1533 c 256,23,24
 1026.09765625 1533 1026.09765625 1533 1148.11230469 1497.00976562 c 128,-1,25
 1270.12695312 1461.01953125 1270.12695312 1461.01953125 1325.06347656 1330.66210938 c 128,-1,26
 1380 1200.3046875 1380 1200.3046875 1380 903 c 2,27,-1
 1380 594 l 2,28,29
 1380 165.833007812 1380 165.833007812 1258.90039062 64.9169921875 c 0,30,31
 1137.79980469 -36 1137.79980469 -36 755 -36 c 256,32,33
 483.90234375 -36 483.90234375 -36 361.887695312 -0.009765625 c 128,-1,34
 239.873046875 35.98046875 239.873046875 35.98046875 184.936523438 166.337890625 c 128,-1,35
 130 296.6953125 130 296.6953125 130 594 c 2,18,-1
EndSplineSet
EndChar

StartChar: P
Encoding: 80 80 48
Width: 1366
Flags: W
LayerCount: 2
Fore
SplineSet
741 1499 m 2,0,1
 987.290039062 1499 987.290039062 1499 1067.64550781 1446 c 0,2,3
 1251 1325.06347656 1251 1325.06347656 1251 1075.68945312 c 0,4,5
 1251 601.615234375 1251 601.615234375 1022.015625 531.158203125 c 0,6,7
 914.25 498 914.25 498 727 498 c 2,8,-1
 384 498 l 1,9,-1
 384 0 l 1,10,-1
 163 0 l 1,11,-1
 163 1499 l 1,12,-1
 741 1499 l 2,0,1
721 659 m 2,13,14
 937.301757812 659 937.301757812 659 983.651367188 721.987304688 c 128,-1,15
 1030 784.974609375 1030 784.974609375 1030 971.987304688 c 128,-1,16
 1030 1159 1030 1159 1010.5 1218.5 c 128,-1,17
 991 1278 991 1278 946.200195312 1310 c 128,-1,18
 901.400390625 1342 901.400390625 1342 727 1342 c 2,19,-1
 384 1342 l 1,20,-1
 384 659 l 1,21,-1
 721 659 l 2,13,14
EndSplineSet
EndChar

StartChar: Q
Encoding: 81 81 49
Width: 1516
Flags: W
LayerCount: 2
Fore
SplineSet
1353 -246 m 1,0,-1
 1203 -358 l 1,1,-1
 961 -24 l 1,2,-1
 1152 33 l 1,3,-1
 1353 -246 l 1,0,-1
755 1376 m 256,4,5
 530.185546875 1376 530.185546875 1376 459.536132812 1354.56738281 c 128,-1,6
 388.88671875 1333.13378906 388.88671875 1333.13378906 369.943359375 1246.65429688 c 128,-1,7
 351 1160.17382812 351 1160.17382812 351 903 c 2,8,-1
 351 594 l 2,9,10
 351 241.571289062 351 241.571289062 389.5 196.786132812 c 128,-1,11
 428 152 428 152 479.092773438 136.5 c 128,-1,12
 530.185546875 121 530.185546875 121 755 121 c 256,13,14
 979.814453125 121 979.814453125 121 1050.46386719 142.432617188 c 128,-1,15
 1121.11328125 163.866210938 1121.11328125 163.866210938 1138.92285156 245.170898438 c 128,-1,16
 1156.73242188 326.475585938 1156.73242188 326.475585938 1159 594 c 1,17,-1
 1159 903 l 1,18,19
 1156.73242188 1170.52441406 1156.73242188 1170.52441406 1138.92285156 1251.82910156 c 128,-1,20
 1121.11328125 1333.13378906 1121.11328125 1333.13378906 1050.46386719 1354.56738281 c 128,-1,21
 979.814453125 1376 979.814453125 1376 755 1376 c 256,4,5
130 594 m 2,22,-1
 130 903 l 2,23,24
 130 1331.16699219 130 1331.16699219 251.099609375 1432.08300781 c 0,25,26
 372.200195312 1533 372.200195312 1533 755 1533 c 256,27,28
 1026.09765625 1533 1026.09765625 1533 1148.11230469 1497.00976562 c 128,-1,29
 1270.12695312 1461.01953125 1270.12695312 1461.01953125 1325.06347656 1330.66210938 c 128,-1,30
 1380 1200.3046875 1380 1200.3046875 1380 903 c 2,31,-1
 1380 594 l 2,32,33
 1380 165.833007812 1380 165.833007812 1258.90039062 64.9169921875 c 0,34,35
 1137.79980469 -36 1137.79980469 -36 755 -36 c 256,36,37
 483.90234375 -36 483.90234375 -36 361.887695312 -0.009765625 c 128,-1,38
 239.873046875 35.98046875 239.873046875 35.98046875 184.936523438 166.337890625 c 128,-1,39
 130 296.6953125 130 296.6953125 130 594 c 2,22,-1
EndSplineSet
EndChar

StartChar: R
Encoding: 82 82 50
Width: 1421
Flags: W
LayerCount: 2
Fore
SplineSet
384 0 m 1,0,-1
 163 0 l 1,1,-1
 163 1499 l 1,2,-1
 728 1499 l 2,3,4
 1000.75976562 1499 1000.75976562 1499 1083.37988281 1458.5 c 0,5,6
 1280 1362.1171875 1280 1362.1171875 1280 1146.6015625 c 128,-1,7
 1280 931.0859375 1280 931.0859375 1225.72558594 836.573242188 c 128,-1,8
 1171.45019531 742.059570312 1171.45019531 742.059570312 1011 729 c 1,9,10
 1198.89941406 720.052734375 1198.89941406 720.052734375 1255 576.5 c 0,11,12
 1272 533 1272 533 1272 482 c 2,13,-1
 1272 0 l 1,14,-1
 1051 0 l 1,15,-1
 1051 421 l 2,16,17
 1051 580.938476562 1051 580.938476562 1013.91503906 611.969726562 c 128,-1,18
 976.829101562 643 976.829101562 643 828 643 c 2,19,-1
 384 643 l 1,20,-1
 384 0 l 1,0,-1
729 793 m 2,21,22
 943.581054688 793 943.581054688 793 1001.29003906 842.694335938 c 128,-1,23
 1059 892.388671875 1059 892.388671875 1059 1040.69433594 c 128,-1,24
 1059 1189 1059 1189 1039 1237.5 c 128,-1,25
 1019 1286 1019 1286 969.086914062 1314 c 128,-1,26
 919.173828125 1342 919.173828125 1342 725 1342 c 2,27,-1
 384 1342 l 1,28,-1
 384 793 l 1,29,-1
 729 793 l 2,21,22
EndSplineSet
EndChar

StartChar: S
Encoding: 83 83 51
Width: 1360
Flags: W
LayerCount: 2
Fore
SplineSet
999 1106 m 1,0,1
 999 1303.62890625 999 1303.62890625 972 1328.31445312 c 0,2,3
 926.40625 1370 926.40625 1370 719.336914062 1370 c 128,-1,4
 512.266601562 1370 512.266601562 1370 452.252929688 1358.30859375 c 128,-1,5
 392.23828125 1346.61816406 392.23828125 1346.61816406 377.119140625 1294.09863281 c 128,-1,6
 362 1241.57910156 362 1241.57910156 362 1123.1640625 c 128,-1,7
 362 1004.75 362 1004.75 372.541992188 965.21875 c 128,-1,8
 383.083007812 925.688476562 383.083007812 925.688476562 477.864257812 907.556640625 c 128,-1,9
 572.64453125 889.424804688 572.64453125 889.424804688 814.301757812 858.626953125 c 128,-1,10
 1055.95800781 827.829101562 1055.95800781 827.829101562 1118 792.5 c 0,11,12
 1243 721.319335938 1243 721.319335938 1243 457.131835938 c 128,-1,13
 1243 192.943359375 1243 192.943359375 1154.27148438 77.9716796875 c 128,-1,14
 1065.54394531 -37 1065.54394531 -37 710.045898438 -37 c 128,-1,15
 354.548828125 -37 354.548828125 -37 233.274414062 46.544921875 c 128,-1,16
 112 130.088867188 112 130.088867188 112 399 c 2,17,-1
 112 416 l 1,18,-1
 321 416 l 1,19,20
 321 206.849609375 321 206.849609375 351.5 180.924804688 c 0,21,22
 403.176757812 137 403.176757812 137 631.288085938 137 c 128,-1,23
 859.400390625 137 859.400390625 137 926.716796875 149.166015625 c 128,-1,24
 994.034179688 161.331054688 994.034179688 161.331054688 1008.01660156 206.387695312 c 128,-1,25
 1022 251.444335938 1022 251.444335938 1022 380.989257812 c 128,-1,26
 1022 510.533203125 1022 510.533203125 1008.62304688 573.848632812 c 128,-1,27
 995.247070312 637.1640625 995.247070312 637.1640625 949.123046875 645.08203125 c 128,-1,28
 903 653 903 653 846.5 662.5 c 128,-1,29
 790 672 790 672 728 681.5 c 128,-1,30
 666 691 666 691 605 700.5 c 128,-1,31
 544 710 544 710 413.939453125 726.697265625 c 0,32,33
 141 761.736328125 141 761.736328125 141 1034.92089844 c 128,-1,34
 141 1308.10449219 141 1308.10449219 223.791015625 1420.55175781 c 128,-1,35
 306.58203125 1533 306.58203125 1533 653.01953125 1533 c 128,-1,36
 999.456054688 1533 999.456054688 1533 1101.25976562 1460.46484375 c 128,-1,37
 1203.06347656 1387.9296875 1203.06347656 1387.9296875 1206 1106 c 1,38,-1
 999 1106 l 1,0,1
EndSplineSet
EndChar

StartChar: T
Encoding: 84 84 52
Width: 964
Flags: W
LayerCount: 2
Fore
SplineSet
1003 1499 m 1,0,-1
 1003 1339 l 1,1,-1
 578 1339 l 1,2,-1
 578 0 l 1,3,-1
 357 0 l 1,4,-1
 357 1339 l 1,5,-1
 -60 1339 l 1,6,-1
 -60 1499 l 1,7,-1
 1003 1499 l 1,0,-1
EndSplineSet
EndChar

StartChar: U
Encoding: 85 85 53
Width: 1534
Flags: W
LayerCount: 2
Fore
SplineSet
150 549 m 2,0,-1
 150 1499 l 1,1,-1
 371 1499 l 1,2,-1
 371 467 l 2,3,4
 371 236.133789062 371 236.133789062 456.474609375 173.452148438 c 128,-1,5
 541.94921875 110.770507812 541.94921875 110.770507812 812.077148438 124.390625 c 0,6,7
 1082.20507812 138.010742188 1082.20507812 138.010742188 1122.60253906 222.171875 c 128,-1,8
 1163 306.333007812 1163 306.333007812 1163 467 c 2,9,-1
 1163 1499 l 1,10,-1
 1384 1499 l 1,11,-1
 1384 549 l 2,12,13
 1384 287.737304688 1384 287.737304688 1330.83398438 166.481445312 c 0,14,15
 1277.66894531 45.2265625 1277.66894531 45.2265625 1152.50097656 4.11328125 c 128,-1,16
 1027.33300781 -37 1027.33300781 -37 767 -37 c 256,17,18
 393.75 -37 393.75 -37 289.715820312 52.4921875 c 128,-1,19
 185.681640625 141.984375 185.681640625 141.984375 167.840820312 280.9921875 c 128,-1,20
 150 420 150 420 150 549 c 2,0,-1
EndSplineSet
EndChar

StartChar: V
Encoding: 86 86 54
Width: 1282
Flags: W
LayerCount: 2
Fore
SplineSet
637 256 m 1,0,-1
 643 256 l 1,1,-1
 1037 1499 l 1,2,-1
 1275 1499 l 1,3,-1
 748 0 l 1,4,-1
 518 0 l 1,5,-1
 -2 1499 l 1,6,-1
 232 1499 l 1,7,-1
 637 256 l 1,0,-1
EndSplineSet
EndChar

StartChar: W
Encoding: 87 87 55
Width: 1929
Flags: W
LayerCount: 2
Fore
SplineSet
1391 266 m 1,0,-1
 1397 266 l 1,1,-1
 1661 1499 l 1,2,-1
 1889 1499 l 1,3,-1
 1512 0 l 1,4,-1
 1262 0 l 1,5,-1
 961 1192 l 1,6,-1
 653 0 l 1,7,-1
 403 0 l 1,8,-1
 33 1499 l 1,9,-1
 267 1499 l 1,10,-1
 532 266 l 1,11,-1
 538 266 l 1,12,-1
 852 1499 l 1,13,-1
 1066 1499 l 1,14,-1
 1391 266 l 1,0,-1
EndSplineSet
EndChar

StartChar: X
Encoding: 88 88 56
Width: 1263
Flags: W
LayerCount: 2
Fore
SplineSet
634 598 m 1,0,-1
 283 0 l 1,1,-1
 46 0 l 1,2,-1
 514 770 l 1,3,-1
 68 1499 l 1,4,-1
 299 1499 l 1,5,-1
 634 934 l 1,6,-1
 969 1499 l 1,7,-1
 1200 1499 l 1,8,-1
 754 770 l 1,9,-1
 1222 0 l 1,10,-1
 985 0 l 1,11,-1
 634 598 l 1,0,-1
EndSplineSet
EndChar

StartChar: Y
Encoding: 89 89 57
Width: 1095
Flags: W
LayerCount: 2
Fore
SplineSet
648 0 m 1,0,-1
 427 0 l 1,1,-1
 427 510 l 1,2,-1
 -40 1499 l 1,3,-1
 196 1499 l 1,4,-1
 543 717 l 1,5,-1
 897 1499 l 1,6,-1
 1123 1499 l 1,7,-1
 648 510 l 1,8,-1
 648 0 l 1,0,-1
EndSplineSet
EndChar

StartChar: Z
Encoding: 90 90 58
Width: 1144
Flags: W
LayerCount: 2
Fore
SplineSet
80 0 m 1,0,-1
 80 147 l 1,1,-1
 807 1336 l 1,2,-1
 158 1336 l 1,3,-1
 158 1499 l 1,4,-1
 1033 1499 l 1,5,-1
 1033 1328 l 1,6,-1
 330 168 l 1,7,-1
 1032 168 l 1,8,-1
 1032 0 l 1,9,-1
 80 0 l 1,0,-1
EndSplineSet
EndChar

StartChar: bracketleft
Encoding: 91 91 59
Width: 583
Flags: W
LayerCount: 2
Fore
SplineSet
166 -262 m 1,0,-1
 166 1690 l 1,1,-1
 663 1690 l 1,2,-1
 663 1543 l 1,3,-1
 378 1543 l 1,4,-1
 378 -114 l 1,5,-1
 663 -114 l 1,6,-1
 663 -262 l 1,7,-1
 166 -262 l 1,0,-1
EndSplineSet
EndChar

StartChar: backslash
Encoding: 92 92 60
Width: 607
Flags: W
LayerCount: 2
Fore
SplineSet
48 1499 m 1,0,-1
 269 1499 l 1,1,-1
 597 0 l 1,2,-1
 376 0 l 1,3,-1
 48 1499 l 1,0,-1
EndSplineSet
EndChar

StartChar: bracketright
Encoding: 93 93 61
Width: 579
Flags: W
LayerCount: 2
Fore
SplineSet
-80 1690 m 1,0,-1
 417 1690 l 1,1,-1
 417 -262 l 1,2,-1
 -80 -262 l 1,3,-1
 -80 -114 l 1,4,-1
 205 -114 l 1,5,-1
 205 1543 l 1,6,-1
 -80 1543 l 1,7,-1
 -80 1690 l 1,0,-1
EndSplineSet
EndChar

StartChar: asciicircum
Encoding: 94 94 62
Width: 819
Flags: W
LayerCount: 2
Fore
SplineSet
716 1430.6875 m 128,-1,1
 716 1401 716 1401 687 1401 c 128,-1,2
 658 1401 658 1401 637 1416 c 1,3,-1
 405 1627 l 1,4,-1
 174 1416 l 1,5,6
 153 1401 153 1401 124 1401 c 128,-1,7
 95 1401 95 1401 95 1431 c 128,-1,8
 95 1461 95 1461 109 1481 c 2,9,-1
 300 1754 l 2,10,11
 330.608398438 1798 330.608398438 1798 405 1798 c 256,12,13
 478.478515625 1798 478.478515625 1798 511 1754 c 1,14,-1
 701 1481 l 2,15,0
 716 1460.375 716 1460.375 716 1430.6875 c 128,-1,1
EndSplineSet
EndChar

StartChar: underscore
Encoding: 95 95 63
Width: 1243
Flags: W
LayerCount: 2
Fore
SplineSet
1083 -425 m 1,0,-1
 160 -425 l 1,1,-1
 160 -268 l 5,2,-1
 1083 -268 l 5,3,-1
 1083 -425 l 1,0,-1
EndSplineSet
EndChar

StartChar: grave
Encoding: 96 96 64
Width: 690
Flags: W
LayerCount: 2
Fore
SplineSet
58 1517.51074219 m 0,0,1
 58 1640 58 1640 168.36328125 1640 c 0,2,3
 250.96875 1640 250.96875 1640 560.5 1357 c 2,4,-1
 578 1341 l 1,5,6
 597 1325 597 1325 597 1308.5 c 128,-1,7
 597 1292 597 1292 557.46875 1292 c 128,-1,8
 517.9375 1292 517.9375 1292 328.46875 1362.5 c 128,-1,9
 139 1433 139 1433 98.5 1455.01074219 c 128,-1,10
 58 1477.02148438 58 1477.02148438 58 1517.51074219 c 0,0,1
EndSplineSet
EndChar

StartChar: a
Encoding: 97 97 65
Width: 1194
Flags: W
LayerCount: 2
Fore
SplineSet
162 932 m 0,0,1
 162 1180 162 1180 516 1180 c 0,2,3
 731.181640625 1180 731.181640625 1180 810 1163 c 0,4,5
 1057 1109.72558594 1057 1109.72558594 1057 849 c 2,6,-1
 1057 413 l 2,7,8
 1057 172.125 1057 172.125 1074 0 c 1,9,-1
 893 0 l 1,10,-1
 850 97 l 1,11,12
 822.342773438 -24 822.342773438 -24 548.965820312 -24 c 128,-1,13
 275.588867188 -24 275.588867188 -24 183.794921875 44.3779296875 c 128,-1,14
 92 112.754882812 92 112.754882812 92 331.024414062 c 128,-1,15
 92 549.293945312 92 549.293945312 180.73046875 617.147460938 c 128,-1,16
 269.461914062 685 269.461914062 685 433.9453125 685 c 128,-1,17
 598.428710938 685 598.428710938 685 840 647 c 1,18,-1
 840 874 l 2,19,20
 840 981.5 840 981.5 807.555664062 999.75 c 128,-1,21
 775.111328125 1018 775.111328125 1018 592.96484375 1018 c 128,-1,22
 410.818359375 1018 410.818359375 1018 381.5 1003 c 128,-1,23
 352 987.907226562 352 987.907226562 352 925.953125 c 128,-1,24
 352 864 352 864 356 818 c 1,25,-1
 175 798 l 1,26,27
 162 863 162 863 162 932 c 0,0,1
840 226 m 2,28,-1
 840 539 l 1,29,-1
 508 539 l 2,30,31
 348.666992188 539 348.666992188 539 321.833007812 510.825195312 c 128,-1,32
 295 482.650390625 295 482.650390625 295 374.825195312 c 0,33,34
 295 208.799804688 295 208.799804688 307.369140625 172.517578125 c 128,-1,35
 319.737304688 136.236328125 319.737304688 136.236328125 370.069335938 128.118164062 c 128,-1,36
 420.400390625 120 420.400390625 120 593.178710938 120 c 128,-1,37
 765.956054688 120 765.956054688 120 802.978515625 137.377929688 c 128,-1,38
 840 154.754882812 840 154.754882812 840 226 c 2,28,-1
EndSplineSet
EndChar

StartChar: b
Encoding: 98 98 66
Width: 1273
Flags: W
LayerCount: 2
Fore
SplineSet
380 799 m 2,0,-1
 380 342 l 2,1,2
 380 196.111328125 380 196.111328125 412.125 167.555664062 c 128,-1,3
 444.25 139 444.25 139 619.852539062 139 c 128,-1,4
 795.454101562 139 795.454101562 139 851.39453125 147.91796875 c 128,-1,5
 907.333984375 156.8359375 907.333984375 156.8359375 921.666992188 192.66796875 c 128,-1,6
 936 228.5 936 228.5 936 342 c 2,7,-1
 936 799 l 2,8,9
 936 962.818359375 936 962.818359375 910.5 982.909179688 c 128,-1,10
 885 1003 885 1003 850.384765625 1010.5 c 128,-1,11
 815.76953125 1018 815.76953125 1018 663.154296875 1018 c 128,-1,12
 510.538085938 1018 510.538085938 1018 457.500976562 1007.05566406 c 128,-1,13
 404.462890625 996.111328125 404.462890625 996.111328125 392.231445312 956.155273438 c 128,-1,14
 380 916.200195312 380 916.200195312 380 799 c 2,0,-1
702.1953125 1180 m 128,-1,16
 966.333007812 1180 966.333007812 1180 1059.66699219 1096 c 128,-1,17
 1153 1012 1153 1012 1153 808 c 2,18,-1
 1153 387 l 2,19,20
 1153 156.090820312 1153 156.090820312 1073.75976562 66.0458984375 c 128,-1,21
 994.51953125 -24 994.51953125 -24 722.625 -24 c 128,-1,22
 450.729492188 -24 450.729492188 -24 381 105 c 1,23,-1
 356 0 l 1,24,-1
 163 0 l 1,25,-1
 163 1594 l 1,26,-1
 380 1594 l 1,27,-1
 380 1053 l 1,28,15
 438.057617188 1180 438.057617188 1180 702.1953125 1180 c 128,-1,16
EndSplineSet
EndChar

StartChar: c
Encoding: 99 99 67
Width: 1190
Flags: W
LayerCount: 2
Fore
SplineSet
865 766 m 1,0,-1
 865 800 l 2,1,2
 865 963.021484375 865 963.021484375 833.48828125 990.510742188 c 128,-1,3
 801.975585938 1018 801.975585938 1018 629.23828125 1018 c 128,-1,4
 456.5 1018 456.5 1018 405.923828125 1008.36621094 c 128,-1,5
 355.346679688 998.732421875 355.346679688 998.732421875 343.173828125 958.966796875 c 128,-1,6
 331 919.200195312 331 919.200195312 331 800 c 2,7,-1
 331 343 l 2,8,9
 331 190.235351562 331 190.235351562 357 171.1171875 c 0,10,11
 400.6796875 139 400.6796875 139 576.249023438 139 c 128,-1,12
 751.818359375 139 751.818359375 139 797.276367188 147.9296875 c 128,-1,13
 842.733398438 156.858398438 842.733398438 156.858398438 853.8671875 192.643554688 c 128,-1,14
 865 228.428710938 865 228.428710938 865 343 c 2,15,-1
 865 375 l 1,16,-1
 1074 375 l 1,17,-1
 1074 359 l 2,18,19
 1074 137.040039062 1074 137.040039062 984.08984375 57.01953125 c 128,-1,20
 894.1796875 -23 894.1796875 -23 601.471679688 -23 c 128,-1,21
 308.763671875 -23 308.763671875 -23 211.381835938 56.513671875 c 128,-1,22
 114 136.02734375 114 136.02734375 114 359 c 2,23,-1
 114 798 l 2,24,25
 114 1020.4453125 114 1020.4453125 212.6015625 1100.22265625 c 128,-1,26
 311.202148438 1180 311.202148438 1180 601.717773438 1180 c 128,-1,27
 892.233398438 1180 892.233398438 1180 983.116210938 1099.01464844 c 128,-1,28
 1074 1018.02929688 1074 1018.02929688 1074 798 c 2,29,-1
 1074 766 l 1,30,-1
 865 766 l 1,0,-1
EndSplineSet
EndChar

StartChar: d
Encoding: 100 100 68
Width: 1272
Flags: W
LayerCount: 2
Fore
SplineSet
327 799 m 2,0,-1
 327 342 l 2,1,2
 327 189.262695312 327 189.262695312 366.791992188 164.131835938 c 128,-1,3
 406.583007812 139 406.583007812 139 616.666992188 139 c 128,-1,4
 826.75 139 826.75 139 858.875 167.555664062 c 128,-1,5
 891 196.111328125 891 196.111328125 891 342 c 2,6,-1
 891 799 l 2,7,8
 891 961.114257812 891 961.114257812 864.5 981.557617188 c 128,-1,9
 838 1002 838 1002 799.23046875 1010 c 128,-1,10
 760.461914062 1018 760.461914062 1018 605.5 1018 c 128,-1,11
 450.538085938 1018 450.538085938 1018 400.85546875 1007.58300781 c 128,-1,12
 351.172851562 997.165039062 351.172851562 997.165039062 339.086914062 957.682617188 c 128,-1,13
 327 918.200195312 327 918.200195312 327 799 c 2,0,-1
110 387 m 2,14,-1
 110 808 l 2,15,16
 110 1012.70605469 110 1012.70605469 204.799804688 1096.35253906 c 128,-1,17
 299.599609375 1180 299.599609375 1180 566.271484375 1180 c 128,-1,18
 832.942382812 1180 832.942382812 1180 891 1053 c 1,19,-1
 891 1594 l 1,20,-1
 1110 1594 l 1,21,-1
 1110 0 l 1,22,-1
 915 0 l 1,23,-1
 890 105 l 1,24,25
 820.270507812 -24 820.270507812 -24 545.10546875 -24 c 128,-1,26
 269.940429688 -24 269.940429688 -24 189.969726562 65.853515625 c 128,-1,27
 110 155.708007812 110 155.708007812 110 387 c 2,14,-1
EndSplineSet
EndChar

StartChar: e
Encoding: 101 101 69
Width: 1234
Flags: W
LayerCount: 2
Fore
SplineSet
1114 367 m 1,0,-1
 1114 359 l 2,1,2
 1114 136.5546875 1114 136.5546875 1015.3984375 56.77734375 c 128,-1,3
 916.797851562 -23 916.797851562 -23 613 -23 c 256,4,5
 308.763671875 -23 308.763671875 -23 211.381835938 56.513671875 c 128,-1,6
 114 136.02734375 114 136.02734375 114 359 c 2,7,-1
 114 798 l 2,8,9
 114 1020.4453125 114 1020.4453125 212.6015625 1100.22265625 c 128,-1,10
 311.202148438 1180 311.202148438 1180 655.18359375 1180 c 128,-1,11
 999.165039062 1180 999.165039062 1180 1076 1024.5 c 0,12,13
 1114 947.595703125 1114 947.595703125 1114 798 c 2,14,-1
 1114 555 l 1,15,-1
 331 555 l 1,16,-1
 331 343 l 2,17,18
 331 190.235351562 331 190.235351562 365.83984375 164.6171875 c 128,-1,19
 400.6796875 139 400.6796875 139 613 139 c 256,20,21
 825.3203125 139 825.3203125 139 860.16015625 164.6171875 c 128,-1,22
 895 190.235351562 895 190.235351562 895 343 c 2,23,-1
 895 367 l 1,24,-1
 1114 367 l 1,0,-1
331 659 m 1,25,-1
 895 659 l 1,26,-1
 895 800 l 2,27,28
 895 964.235351562 895 964.235351562 869 984.1171875 c 0,29,30
 824.692382812 1018 824.692382812 1018 640.595703125 1018 c 128,-1,31
 456.5 1018 456.5 1018 405.923828125 1008.36621094 c 128,-1,32
 355.346679688 998.732421875 355.346679688 998.732421875 343.173828125 958.966796875 c 128,-1,33
 331 919.200195312 331 919.200195312 331 800 c 2,34,-1
 331 659 l 1,25,-1
EndSplineSet
EndChar

StartChar: f
Encoding: 102 102 70
Width: 756
Flags: W
LayerCount: 2
Fore
SplineSet
467.857421875 1579 m 128,-1,1
 537.713867188 1579 537.713867188 1579 656 1561 c 1,2,-1
 656 1412 l 1,3,-1
 434 1412 l 1,4,-1
 434 1147 l 1,5,-1
 652 1147 l 1,6,-1
 652 1028 l 1,7,-1
 434 1028 l 1,8,-1
 434 0 l 1,9,-1
 217 0 l 1,10,-1
 217 1028 l 1,11,-1
 74 1028 l 1,12,-1
 74 1147 l 1,13,-1
 217 1147 l 1,14,15
 217 1203 217 1203 215 1256.5 c 128,-1,16
 213 1310 213 1310 216.5 1358 c 128,-1,17
 220 1406 220 1406 232 1446.5 c 128,-1,18
 244 1487 244 1487 272.5 1516.5 c 128,-1,19
 301 1546 301 1546 349.5 1562.5 c 128,-1,0
 398 1579 398 1579 467.857421875 1579 c 128,-1,1
EndSplineSet
EndChar

StartChar: g
Encoding: 103 103 71
Width: 1239
Flags: W
LayerCount: 2
Fore
SplineSet
872 357 m 2,0,-1
 872 814 l 2,1,2
 872 960.477539062 872 960.477539062 841.133789062 989.23828125 c 128,-1,3
 810.268554688 1018 810.268554688 1018 638.907226562 1018 c 0,4,5
 467.545898438 1018 467.545898438 1018 411.580078125 1009.078125 c 128,-1,6
 355.614257812 1000.15625 355.614257812 1000.15625 341.807617188 963.607421875 c 128,-1,7
 328 927.05859375 328 927.05859375 328 814 c 2,8,-1
 328 380 l 2,9,10
 328 215.393554688 328 215.393554688 353 195.697265625 c 128,-1,11
 378 176 378 176 413 169 c 128,-1,12
 448 162 448 162 625.17578125 162 c 128,-1,13
 802.3515625 162 802.3515625 162 837.17578125 187.264648438 c 128,-1,14
 872 212.529296875 872 212.529296875 872 357 c 2,0,-1
111 371 m 2,15,-1
 111 769 l 2,16,17
 111 1000.29199219 111 1000.29199219 190.969726562 1090.14648438 c 128,-1,18
 270.940429688 1180 270.940429688 1180 536.928710938 1180 c 128,-1,19
 802.916992188 1180 802.916992188 1180 871 1051 c 1,20,-1
 896 1147 l 1,21,-1
 1091 1147 l 1,22,-1
 1091 45 l 2,23,24
 1091 -179.715820312 1091 -179.715820312 983.553710938 -265.857421875 c 128,-1,25
 876.107421875 -352 876.107421875 -352 623.954101562 -352 c 128,-1,26
 371.799804688 -352 371.799804688 -352 234 -299 c 1,27,-1
 266 -153 l 1,28,29
 380 -195 380 -195 591.786132812 -195 c 128,-1,30
 803.571289062 -195 803.571289062 -195 837.286132812 -180.25 c 128,-1,31
 871 -165.5 871 -165.5 871 -88 c 2,32,-1
 870 103 l 1,33,34
 813.172851562 0 813.172851562 0 556.885742188 0 c 128,-1,35
 300.599609375 0 300.599609375 0 205.799804688 83.6474609375 c 128,-1,36
 111 167.293945312 111 167.293945312 111 371 c 2,15,-1
EndSplineSet
EndChar

StartChar: h
Encoding: 104 104 72
Width: 1251
Flags: W
LayerCount: 2
Fore
SplineSet
706.848632812 1179 m 128,-1,1
 950.239257812 1179 950.239257812 1179 1034.62011719 1089.98339844 c 128,-1,2
 1119 1000.96679688 1119 1000.96679688 1119 780 c 2,3,-1
 1119 0 l 1,4,-1
 900 0 l 1,5,-1
 900 772 l 2,6,7
 900 955.448242188 900 955.448242188 877.5 978.724609375 c 0,8,9
 839.533203125 1018 839.533203125 1018 670.900390625 1018 c 128,-1,10
 502.266601562 1018 502.266601562 1018 453.353515625 1006.16601562 c 128,-1,11
 404.440429688 994.33203125 404.440429688 994.33203125 392.220703125 946.266601562 c 128,-1,12
 380 898.200195312 380 898.200195312 380 752 c 2,13,-1
 380 0 l 1,14,-1
 163 0 l 1,15,-1
 163 1552 l 1,16,-1
 380 1552 l 1,17,-1
 380 1052 l 1,18,0
 463.45703125 1179 463.45703125 1179 706.848632812 1179 c 128,-1,1
EndSplineSet
EndChar

StartChar: i
Encoding: 105 105 73
Width: 543
Flags: W
LayerCount: 2
Fore
SplineSet
381 1147 m 1,0,-1
 381 0 l 1,1,-1
 164 0 l 1,2,-1
 164 1147 l 1,3,-1
 381 1147 l 1,0,-1
381 1571 m 1,4,-1
 381 1384 l 1,5,-1
 164 1384 l 1,6,-1
 164 1571 l 1,7,-1
 381 1571 l 1,4,-1
EndSplineSet
EndChar

StartChar: j
Encoding: 106 106 74
Width: 523
Flags: W
LayerCount: 2
Fore
SplineSet
359 -49 m 2,0,1
 359 -311 359 -311 118.5 -311 c 0,2,3
 41.6669921875 -311 41.6669921875 -311 -40 -297 c 1,4,-1
 -44 -156 l 1,5,-1
 142 -156 l 1,6,-1
 142 1147 l 1,7,-1
 359 1147 l 1,8,-1
 359 -49 l 2,0,1
361 1384 m 1,9,-1
 142 1384 l 1,10,-1
 142 1571 l 1,11,-1
 361 1571 l 1,12,-1
 361 1384 l 1,9,-1
EndSplineSet
EndChar

StartChar: k
Encoding: 107 107 75
Width: 1179
Flags: W
LayerCount: 2
Fore
SplineSet
380 0 m 1,0,-1
 163 0 l 1,1,-1
 163 1552 l 1,2,-1
 380 1552 l 1,3,-1
 380 660 l 1,4,-1
 858 1147 l 1,5,-1
 1108 1147 l 1,6,-1
 628 674 l 1,7,-1
 1144 0 l 1,8,-1
 901 0 l 1,9,-1
 477 568 l 1,10,-1
 380 481 l 1,11,-1
 380 0 l 1,0,-1
EndSplineSet
EndChar

StartChar: l
Encoding: 108 108 76
Width: 542
Flags: W
LayerCount: 2
Fore
SplineSet
380 0 m 1,0,-1
 163 0 l 1,1,-1
 163 1552 l 1,2,-1
 380 1552 l 1,3,-1
 380 0 l 1,0,-1
EndSplineSet
EndChar

StartChar: m
Encoding: 109 109 77
Width: 1864
Flags: W
LayerCount: 2
Fore
SplineSet
1729 801 m 2,0,-1
 1729 0 l 1,1,-1
 1510 0 l 1,2,-1
 1510 788 l 2,3,4
 1510 962.461914062 1510 962.461914062 1490 983.23046875 c 0,5,6
 1456.51855469 1018 1456.51855469 1018 1306.25878906 1018 c 128,-1,7
 1156 1018 1156 1018 1114.87402344 1007.71875 c 128,-1,8
 1073.74902344 997.4375 1073.74902344 997.4375 1063.37402344 955.141601562 c 128,-1,9
 1053 912.845703125 1053 912.845703125 1053 777 c 2,10,-1
 1053 0 l 1,11,-1
 834 0 l 1,12,-1
 834 773 l 2,13,14
 834 957.919921875 834 957.919921875 815 979.959960938 c 0,15,16
 782.20703125 1018 782.20703125 1018 630.817382812 1018 c 128,-1,17
 479.428710938 1018 479.428710938 1018 432.834960938 1006.94433594 c 128,-1,18
 386.2421875 995.887695312 386.2421875 995.887695312 374.62109375 953.27734375 c 128,-1,19
 363 910.666992188 363 910.666992188 363 773 c 2,20,-1
 363 0 l 1,21,-1
 146 0 l 1,22,-1
 146 1147 l 1,23,-1
 339 1147 l 1,24,-1
 365 1052 l 1,25,26
 457.444335938 1180 457.444335938 1180 694.913085938 1180 c 128,-1,27
 932.380859375 1180 932.380859375 1180 1000 1038 c 1,28,29
 1057.4765625 1180 1057.4765625 1180 1305.05664062 1180 c 128,-1,30
 1552.63671875 1180 1552.63671875 1180 1640.81835938 1099.16699219 c 128,-1,31
 1729 1018.33300781 1729 1018.33300781 1729 801 c 2,0,-1
EndSplineSet
EndChar

StartChar: n
Encoding: 110 110 78
Width: 1236
Flags: W
LayerCount: 2
Fore
SplineSet
689.120117188 1180 m 128,-1,1
 930.440429688 1180 930.440429688 1180 1016.22070312 1093.28808594 c 128,-1,2
 1102 1006.57617188 1102 1006.57617188 1102 780 c 2,3,-1
 1102 0 l 1,4,-1
 885 0 l 1,5,-1
 885 782 l 2,6,7
 885 958.533203125 885 958.533203125 862 980.766601562 c 0,8,9
 823.482421875 1018 823.482421875 1018 654.375 1018 c 128,-1,10
 485.266601562 1018 485.266601562 1018 436.193359375 1006.12695312 c 128,-1,11
 387.120117188 994.254882812 387.120117188 994.254882812 375.059570312 948.427734375 c 128,-1,12
 363 902.599609375 363 902.599609375 363 762 c 2,13,-1
 363 0 l 1,14,-1
 146 0 l 1,15,-1
 146 1147 l 1,16,-1
 339 1147 l 1,17,-1
 365 1054 l 1,18,0
 447.799804688 1180 447.799804688 1180 689.120117188 1180 c 128,-1,1
EndSplineSet
EndChar

StartChar: o
Encoding: 111 111 79
Width: 1236
Flags: W
LayerCount: 2
Fore
SplineSet
114 798 m 2,0,1
 114 1020.4453125 114 1020.4453125 212.6015625 1100.22265625 c 128,-1,2
 311.202148438 1180 311.202148438 1180 655.18359375 1180 c 128,-1,3
 999.165039062 1180 999.165039062 1180 1076 1024.5 c 0,4,5
 1114 947.595703125 1114 947.595703125 1114 798 c 2,6,-1
 1114 359 l 2,7,8
 1114 136.5546875 1114 136.5546875 1015.3984375 56.77734375 c 128,-1,9
 916.797851562 -23 916.797851562 -23 613 -23 c 256,10,11
 308.763671875 -23 308.763671875 -23 211.381835938 56.513671875 c 128,-1,12
 114 136.02734375 114 136.02734375 114 359 c 2,13,-1
 114 798 l 2,0,1
331 800 m 2,14,-1
 331 343 l 2,15,16
 331 190.235351562 331 190.235351562 365.83984375 164.6171875 c 128,-1,17
 400.6796875 139 400.6796875 139 613 139 c 256,18,19
 825.3203125 139 825.3203125 139 860.16015625 164.6171875 c 128,-1,20
 895 190.235351562 895 190.235351562 895 343 c 2,21,-1
 895 800 l 2,22,23
 895 964.235351562 895 964.235351562 869 984.1171875 c 128,-1,24
 843 1004 843 1004 806.25 1011 c 128,-1,25
 769.5 1018 769.5 1018 613 1018 c 128,-1,26
 456.5 1018 456.5 1018 405.923828125 1008.36621094 c 128,-1,27
 355.346679688 998.732421875 355.346679688 998.732421875 343.173828125 958.966796875 c 128,-1,28
 331 919.200195312 331 919.200195312 331 800 c 2,14,-1
EndSplineSet
EndChar

StartChar: p
Encoding: 112 112 80
Width: 1258
Flags: W
LayerCount: 2
Fore
SplineSet
917 357 m 2,0,-1
 917 814 l 2,1,2
 917 966.841796875 917 966.841796875 878.120117188 992.420898438 c 128,-1,3
 839.240234375 1018 839.240234375 1018 633.107421875 1018 c 128,-1,4
 426.975585938 1018 426.975585938 1018 394.98828125 988.85546875 c 128,-1,5
 363 959.7109375 363 959.7109375 363 814 c 2,6,-1
 363 357 l 2,7,8
 363 195.885742188 363 195.885742188 389.5 175.442382812 c 128,-1,9
 416 155 416 155 454.76953125 147 c 128,-1,10
 493.538085938 139 493.538085938 139 645.26953125 139 c 128,-1,11
 797 139 797 139 845.336914062 148.666992188 c 128,-1,12
 893.673828125 158.334960938 893.673828125 158.334960938 905.336914062 196.43359375 c 128,-1,13
 917 234.533203125 917 234.533203125 917 357 c 2,0,-1
702.611328125 1180 m 128,-1,15
 973.139648438 1180 973.139648438 1180 1054.5703125 1090.51660156 c 128,-1,16
 1136 1001.03320312 1136 1001.03320312 1136 769 c 2,17,-1
 1136 348 l 2,18,19
 1136 144.825195312 1136 144.825195312 1039.96679688 60.9130859375 c 128,-1,20
 943.93359375 -23 943.93359375 -23 677.966796875 -23 c 128,-1,21
 412 -23 412 -23 363 103 c 1,22,-1
 363 -408 l 1,23,-1
 146 -408 l 1,24,-1
 146 1147 l 1,25,-1
 339 1147 l 1,26,-1
 364 1051 l 1,27,14
 432.083007812 1180 432.083007812 1180 702.611328125 1180 c 128,-1,15
EndSplineSet
EndChar

StartChar: q
Encoding: 113 113 81
Width: 1242
Flags: W
LayerCount: 2
Fore
SplineSet
875 357 m 2,0,-1
 875 814 l 2,1,2
 875 960.477539062 875 960.477539062 844.133789062 989.23828125 c 128,-1,3
 813.268554688 1018 813.268554688 1018 641.907226562 1018 c 128,-1,4
 470.545898438 1018 470.545898438 1018 414.580078125 1009.078125 c 128,-1,5
 358.614257812 1000.15625 358.614257812 1000.15625 344.807617188 963.607421875 c 128,-1,6
 331 927.05859375 331 927.05859375 331 814 c 2,7,-1
 331 357 l 2,8,9
 331 192.393554688 331 192.393554688 356 172.697265625 c 128,-1,10
 381 153 381 153 416 146 c 128,-1,11
 451 139 451 139 599.961914062 139 c 128,-1,12
 748.922851562 139 748.922851562 139 799.619140625 149.803710938 c 128,-1,13
 850.315429688 160.608398438 850.315429688 160.608398438 862.657226562 200.104492188 c 128,-1,14
 875 239.599609375 875 239.599609375 875 357 c 2,0,-1
114 348 m 2,15,-1
 114 769 l 2,16,17
 114 1000.29199219 114 1000.29199219 193.969726562 1090.14648438 c 128,-1,18
 273.940429688 1180 273.940429688 1180 539.928710938 1180 c 128,-1,19
 805.916992188 1180 805.916992188 1180 874 1051 c 1,20,-1
 899 1147 l 1,21,-1
 1092 1147 l 1,22,-1
 1092 -408 l 1,23,-1
 875 -408 l 1,24,-1
 875 103 l 1,25,26
 825.611328125 -24 825.611328125 -24 564.60546875 -24 c 128,-1,27
 303.599609375 -24 303.599609375 -24 208.799804688 59.6474609375 c 128,-1,28
 114 143.293945312 114 143.293945312 114 348 c 2,15,-1
EndSplineSet
EndChar

StartChar: r
Encoding: 114 114 82
Width: 767
Flags: W
LayerCount: 2
Fore
SplineSet
619 1024 m 2,0,1
 363 1024 363 1024 363 838 c 2,2,-1
 363 0 l 1,3,-1
 146 0 l 1,4,-1
 146 1147 l 1,5,-1
 319 1147 l 1,6,-1
 345 1004 l 1,7,8
 395.364257812 1124.31445312 395.364257812 1124.31445312 599 1168.5 c 0,9,10
 652 1180 652 1180 695 1180 c 1,11,-1
 695 1024 l 1,12,-1
 619 1024 l 2,0,1
EndSplineSet
EndChar

StartChar: s
Encoding: 115 115 83
Width: 1125
Flags: W
LayerCount: 2
Fore
SplineSet
814 325.5 m 128,-1,1
 814 395 814 395 794 431 c 128,-1,2
 774 467 774 467 738.5 483 c 128,-1,3
 703 499 703 499 654.5 503 c 128,-1,4
 606 507 606 507 549.5 514 c 128,-1,5
 493 521 493 521 439.5 527.5 c 0,6,7
 112 567.290039062 112 567.290039062 112 822.983398438 c 0,8,9
 112 1035.875 112 1035.875 227.299804688 1107.9375 c 128,-1,10
 342.599609375 1180 342.599609375 1180 573.125976562 1180 c 128,-1,11
 803.65234375 1180 803.65234375 1180 900.326171875 1119.90527344 c 128,-1,12
 997 1059.81054688 997 1059.81054688 997 832 c 1,13,-1
 799 833 l 1,14,15
 800.903320312 977.640625 800.903320312 977.640625 755.8515625 1009.8203125 c 128,-1,16
 710.799804688 1042 710.799804688 1042 571.233398438 1042 c 128,-1,17
 431.666992188 1042 431.666992188 1042 376.833007812 1009.09960938 c 128,-1,18
 322 976.200195312 322 976.200195312 322 891.599609375 c 128,-1,19
 322 807 322 807 341.5 773.5 c 128,-1,20
 361 740 361 740 394.5 721 c 128,-1,21
 428 702 428 702 472.5 693.5 c 0,22,23
 520.255859375 684.377929688 520.255859375 684.377929688 670.5 671.5 c 0,24,25
 1019 641.62890625 1019 641.62890625 1019 345.880859375 c 0,26,27
 1019 116.286132812 1019 116.286132812 893.53515625 38.265625 c 128,-1,28
 768.0703125 -39.7548828125 768.0703125 -39.7548828125 464.638671875 -20.7900390625 c 128,-1,29
 161.206054688 -1.8251953125 161.206054688 -1.8251953125 110 203 c 0,30,31
 95 263 95 263 95 348 c 1,32,-1
 299 348 l 1,33,34
 297.138671875 184.165039062 297.138671875 184.165039062 351.022460938 149.58203125 c 128,-1,35
 404.907226562 115 404.907226562 115 528.953125 115 c 128,-1,36
 653 115 653 115 697 122 c 128,-1,37
 741 129 741 129 767 151 c 128,-1,38
 793 173 793 173 803.5 214.5 c 128,-1,0
 814 256 814 256 814 325.5 c 128,-1,1
EndSplineSet
EndChar

StartChar: t
Encoding: 116 116 84
Width: 764
Flags: W
LayerCount: 2
Fore
SplineSet
477 -24 m 0,0,1
 229 -24 229 -24 229 166 c 2,2,-1
 229 1028 l 1,3,-1
 66 1028 l 1,4,-1
 66 1147 l 1,5,-1
 229 1147 l 1,6,-1
 229 1462 l 1,7,-1
 446 1462 l 1,8,-1
 446 1147 l 1,9,-1
 659 1147 l 1,10,-1
 659 1028 l 1,11,-1
 446 1028 l 1,12,-1
 446 133 l 1,13,-1
 648 133 l 1,14,-1
 648 -16 l 1,15,16
 562 -24 562 -24 477 -24 c 0,0,1
EndSplineSet
EndChar

StartChar: u
Encoding: 117 117 85
Width: 1235
Flags: W
LayerCount: 2
Fore
SplineSet
546.029296875 -24 m 128,-1,1
 303.559570312 -24 303.559570312 -24 217.779296875 62.7119140625 c 128,-1,2
 132 149.423828125 132 149.423828125 132 376 c 2,3,-1
 132 1147 l 1,4,-1
 349 1147 l 1,5,-1
 349 374 l 2,6,7
 349 196.93359375 349 196.93359375 372 175.466796875 c 0,8,9
 411.071289062 139 411.071289062 139 579.607421875 139 c 128,-1,10
 748.142578125 139 748.142578125 139 796.71484375 149.967773438 c 128,-1,11
 845.286132812 160.935546875 845.286132812 160.935546875 857.143554688 205.201171875 c 128,-1,12
 869 249.466796875 869 249.466796875 869 394 c 2,13,-1
 869 1147 l 1,14,-1
 1088 1147 l 1,15,-1
 1088 0 l 1,16,-1
 898 0 l 1,17,-1
 869 102 l 1,18,0
 788.5 -24 788.5 -24 546.029296875 -24 c 128,-1,1
EndSplineSet
EndChar

StartChar: v
Encoding: 118 118 86
Width: 1120
Flags: W
LayerCount: 2
Fore
SplineSet
1054 1147 m 1,0,-1
 687 0 l 1,1,-1
 460 0 l 1,2,-1
 43 1147 l 1,3,-1
 255 1147 l 1,4,-1
 572 214 l 1,5,-1
 832 1147 l 1,6,-1
 1054 1147 l 1,0,-1
EndSplineSet
EndChar

StartChar: w
Encoding: 119 119 87
Width: 1722
Flags: W
LayerCount: 2
Fore
SplineSet
1218 231 m 1,0,-1
 1433 1147 l 1,1,-1
 1649 1147 l 1,2,-1
 1343 0 l 1,3,-1
 1116 0 l 1,4,-1
 852 877 l 1,5,-1
 604 0 l 1,6,-1
 377 0 l 1,7,-1
 56 1147 l 1,8,-1
 272 1147 l 1,9,-1
 486 231 l 1,10,-1
 754 1147 l 1,11,-1
 954 1147 l 1,12,-1
 1218 231 l 1,0,-1
EndSplineSet
EndChar

StartChar: x
Encoding: 120 120 88
Width: 1139
Flags: W
LayerCount: 2
Fore
SplineSet
570 420 m 1,0,-1
 301 0 l 1,1,-1
 74 0 l 1,2,-1
 456 578 l 1,3,-1
 80 1147 l 1,4,-1
 306 1147 l 1,5,-1
 569 724 l 1,6,-1
 835 1147 l 1,7,-1
 1057 1147 l 1,8,-1
 687 578 l 1,9,-1
 1065 0 l 1,10,-1
 839 0 l 1,11,-1
 570 420 l 1,0,-1
EndSplineSet
EndChar

StartChar: y
Encoding: 121 121 89
Width: 1132
Flags: W
LayerCount: 2
Fore
SplineSet
404.016601562 -149 m 128,-1,1
 450.032226562 -149 450.032226562 -149 465.403320312 -122.528320312 c 128,-1,2
 480.7734375 -96.056640625 480.7734375 -96.056640625 499 -11 c 1,3,-1
 427 185 l 1,4,5
 330 422 330 422 272 563.5 c 128,-1,6
 214 705 214 705 180 789.5 c 128,-1,7
 146 874 146 874 107.841796875 968.737304688 c 128,-1,8
 69.6845703125 1063.47363281 69.6845703125 1063.47363281 37 1147 c 1,9,-1
 253 1147 l 1,10,-1
 582 259 l 1,11,-1
 845 1147 l 1,12,-1
 1070 1147 l 1,13,-1
 680 3 l 1,14,15
 631.482421875 -172.203125 631.482421875 -172.203125 592.827148438 -236.1015625 c 128,-1,16
 554.172851562 -300 554.172851562 -300 447.3359375 -300 c 128,-1,17
 340.5 -300 340.5 -300 134 -244 c 1,18,-1
 166 -101 l 1,19,0
 358 -149 358 -149 404.016601562 -149 c 128,-1,1
EndSplineSet
EndChar

StartChar: z
Encoding: 122 122 90
Width: 976
Flags: W
LayerCount: 2
Fore
SplineSet
854 1147 m 1,0,-1
 854 1004 l 1,1,-1
 324 139 l 1,2,-1
 850 139 l 1,3,-1
 850 0 l 1,4,-1
 96 0 l 1,5,-1
 96 147 l 1,6,-1
 639 1004 l 1,7,-1
 137 1004 l 1,8,-1
 137 1147 l 1,9,-1
 854 1147 l 1,0,-1
EndSplineSet
EndChar

StartChar: braceleft
Encoding: 123 123 91
Width: 647
Flags: W
LayerCount: 2
Fore
SplineSet
707 -172 m 1,0,1
 262.71875 -172 262.71875 -172 217 246 c 0,2,3
 210 310 210 310 202.127929688 414.963867188 c 128,-1,4
 194.254882812 519.928710938 194.254882812 519.928710938 163.640625 591.963867188 c 128,-1,5
 133.025390625 664 133.025390625 664 38 664 c 1,6,-1
 38 858 l 1,7,8
 158.448242188 858 158.448242188 858 190.5 1038.5 c 0,9,10
 200 1092 200 1092 216.458984375 1208.18164062 c 0,11,12
 232.91796875 1324.36328125 232.91796875 1324.36328125 257.5 1400 c 0,13,14
 353.049804688 1694 353.049804688 1694 706 1694 c 1,15,-1
 706 1530 l 1,16,17
 481.533203125 1530 481.533203125 1530 438.5 1320 c 0,18,19
 419.795898438 1228.72265625 419.795898438 1228.72265625 415.397460938 1110.86132812 c 128,-1,20
 411 993 411 993 396.405273438 897.321289062 c 128,-1,21
 381.809570312 801.641601562 381.809570312 801.641601562 305 758 c 1,22,23
 405.7578125 707.62109375 405.7578125 707.62109375 413.504882812 448.1015625 c 128,-1,24
 421.250976562 188.583007812 421.250976562 188.583007812 485.399414062 90.291015625 c 128,-1,25
 549.547851562 -8 549.547851562 -8 707 -8 c 1,26,-1
 707 -172 l 1,0,1
EndSplineSet
EndChar

StartChar: bar
Encoding: 124 124 92
Width: 518
Flags: W
LayerCount: 2
Fore
SplineSet
359 1716 m 1,0,-1
 359 -98 l 1,1,-1
 163 -98 l 1,2,-1
 163 1716 l 1,3,-1
 359 1716 l 1,0,-1
EndSplineSet
EndChar

StartChar: braceright
Encoding: 125 125 93
Width: 646
Flags: W
LayerCount: 2
Fore
SplineSet
-45 1530 m 1,0,-1
 -45 1694 l 1,1,2
 364.921875 1694 364.921875 1694 433.5 1276 c 0,3,4
 444 1212 444 1212 459.159179688 1104.99316406 c 128,-1,5
 474.318359375 997.986328125 474.318359375 997.986328125 504.940429688 927.993164062 c 128,-1,6
 535.5625 858 535.5625 858 623 858 c 1,7,-1
 623 664 l 1,8,9
 490.6171875 664 490.6171875 664 467 483.5 c 0,10,11
 460 430 460 430 451.461914062 316.154296875 c 0,12,13
 442.922851562 202.307617188 442.922851562 202.307617188 419.5 122 c 0,14,15
 333.75 -172 333.75 -172 -46 -172 c 1,16,-1
 -46 -8 l 1,17,18
 179.057617188 -8 179.057617188 -8 222.5 204 c 0,19,20
 243.228515625 305.155273438 243.228515625 305.155273438 246.614257812 418.577148438 c 128,-1,21
 250 532 250 532 265.431640625 626.215820312 c 128,-1,22
 280.864257812 720.431640625 280.864257812 720.431640625 356 758 c 1,23,24
 256.663085938 814.44140625 256.663085938 814.44140625 246.848632812 1077.44433594 c 0,25,26
 237.03515625 1340.44628906 237.03515625 1340.44628906 173.8515625 1435.22363281 c 128,-1,27
 110.666992188 1530 110.666992188 1530 -45 1530 c 1,0,-1
EndSplineSet
EndChar

StartChar: asciitilde
Encoding: 126 126 94
Width: 1057
Flags: W
LayerCount: 2
Fore
SplineSet
252.5 952 m 128,-1,1
 211 952 211 952 188.5 943 c 128,-1,2
 166 934 166 934 148.5 923 c 128,-1,3
 131 912 131 912 118.5 903 c 128,-1,4
 106 894 106 894 94 894 c 128,-1,5
 82 894 82 894 82 907 c 128,-1,6
 82 920 82 920 98.5 946.5 c 0,7,8
 206.528320312 1120 206.528320312 1120 327.491210938 1120 c 0,9,10
 448.454101562 1120 448.454101562 1120 618.5 1062 c 128,-1,11
 788.545898438 1004 788.545898438 1004 826.772460938 1004 c 128,-1,12
 865 1004 865 1004 887.5 1013.5 c 128,-1,13
 910 1023 910 1023 927 1034.5 c 128,-1,14
 944 1046 944 1046 956.5 1055.5 c 128,-1,15
 969 1065 969 1065 981.5 1065 c 128,-1,16
 994 1065 994 1065 994 1052 c 128,-1,17
 994 1039 994 1039 976 1012.5 c 0,18,19
 858.151367188 839 858.151367188 839 744.505859375 839 c 0,20,21
 630.860351562 839 630.860351562 839 522.930664062 878 c 128,-1,22
 415 917 415 917 354.5 934.5 c 128,-1,0
 294 952 294 952 252.5 952 c 128,-1,1
EndSplineSet
EndChar

StartChar: exclamdown
Encoding: 161 161 95
Width: 522
Flags: W
LayerCount: 2
Fore
SplineSet
389 124.666992188 m 0,0,1
 389 -38 389 -38 261.517578125 -38 c 0,2,3
 202.53515625 -38 202.53515625 -38 170.267578125 8.25 c 128,-1,4
 138 54.5 138 54.5 138 93.75 c 0,5,6
 138 148 138 148 173.125 569.5 c 128,-1,7
 208.25 991 208.25 991 256.337890625 991 c 128,-1,8
 304.42578125 991 304.42578125 991 346.712890625 593.5 c 128,-1,9
 389 196 389 196 389 124.666992188 c 0,0,1
427 1400 m 256,10,11
 427 1244 427 1244 261 1244 c 256,12,13
 152.193359375 1244 152.193359375 1244 110 1336.5 c 0,14,15
 97 1365 97 1365 97 1400 c 256,16,17
 97 1506.16699219 97 1506.16699219 197 1544.5 c 0,18,19
 227 1556 227 1556 261 1556 c 256,20,21
 372.758789062 1556 372.758789062 1556 414 1464 c 0,22,23
 427 1435 427 1435 427 1400 c 256,10,11
EndSplineSet
EndChar

StartChar: cent
Encoding: 162 162 96
Width: 1102
Flags: W
LayerCount: 2
Fore
SplineSet
550 1505 m 1,0,-1
 633 1505 l 1,1,-1
 633 -72 l 1,2,-1
 550 -72 l 1,3,-1
 550 1505 l 1,0,-1
849 906 m 1,4,-1
 849 940 l 2,5,6
 849 1103.02148438 849 1103.02148438 817.48828125 1130.51074219 c 128,-1,7
 785.975585938 1158 785.975585938 1158 613.23828125 1158 c 128,-1,8
 440.5 1158 440.5 1158 389.923828125 1148.36621094 c 128,-1,9
 339.346679688 1138.73242188 339.346679688 1138.73242188 327.173828125 1098.96679688 c 128,-1,10
 315 1059.20019531 315 1059.20019531 315 940 c 2,11,-1
 315 483 l 2,12,13
 315 330.235351562 315 330.235351562 341 311.1171875 c 0,14,15
 384.6796875 279 384.6796875 279 560.249023438 279 c 128,-1,16
 735.818359375 279 735.818359375 279 781.276367188 287.9296875 c 128,-1,17
 826.733398438 296.858398438 826.733398438 296.858398438 837.8671875 332.643554688 c 128,-1,18
 849 368.428710938 849 368.428710938 849 483 c 2,19,-1
 849 515 l 1,20,-1
 1058 515 l 1,21,-1
 1058 499 l 2,22,23
 1058 277.040039062 1058 277.040039062 968.08984375 197.01953125 c 128,-1,24
 878.1796875 117 878.1796875 117 585.471679688 117 c 128,-1,25
 292.763671875 117 292.763671875 117 195.381835938 196.513671875 c 128,-1,26
 98 276.02734375 98 276.02734375 98 499 c 2,27,-1
 98 938 l 2,28,29
 98 1160.4453125 98 1160.4453125 196.6015625 1240.22265625 c 128,-1,30
 295.202148438 1320 295.202148438 1320 585.717773438 1320 c 128,-1,31
 876.233398438 1320 876.233398438 1320 967.116210938 1239.01464844 c 128,-1,32
 1058 1158.02929688 1058 1158.02929688 1058 938 c 2,33,-1
 1058 906 l 1,34,-1
 849 906 l 1,4,-1
EndSplineSet
EndChar

StartChar: sterling
Encoding: 163 163 97
Width: 1515
Flags: W
LayerCount: 2
Fore
SplineSet
541 0 m 2,0,1
 352.034179688 0 352.034179688 0 345 102 c 1,2,3
 327.4140625 0 327.4140625 0 85 0 c 1,4,-1
 85 222 l 1,5,6
 209.833007812 222 209.833007812 222 230.416992188 237.935546875 c 128,-1,7
 251 253.87109375 251 253.87109375 251 348 c 2,8,-1
 251 724 l 1,9,-1
 87 724 l 1,10,-1
 87 882 l 1,11,-1
 251 882 l 1,12,-1
 252 1117 l 2,13,14
 252 1307.48144531 252 1307.48144531 302.700195312 1398.55371094 c 0,15,16
 390.907226562 1557 390.907226562 1557 730.822265625 1557 c 128,-1,17
 1070.73730469 1557 1070.73730469 1557 1177.94433594 1540.02539062 c 0,18,19
 1415 1502.49121094 1415 1502.49121094 1415 1240 c 2,20,-1
 1415 1046 l 1,21,-1
 1210 1046 l 1,22,-1
 1209 1179 l 1,23,24
 1205.92773438 1326.47753906 1205.92773438 1326.47753906 1178.96386719 1343.23828125 c 0,25,26
 1131.08691406 1373 1131.08691406 1373 896.927734375 1373 c 128,-1,27
 662.76953125 1373 662.76953125 1373 587.041992188 1362.74511719 c 128,-1,28
 511.315429688 1352.49023438 511.315429688 1352.49023438 492.158203125 1312.57910156 c 128,-1,29
 473 1272.66699219 473 1272.66699219 473 1146 c 2,30,-1
 472 881 l 1,31,-1
 1104 881 l 1,32,-1
 1104 723 l 1,33,-1
 472 723 l 1,34,-1
 472 345 l 2,35,36
 472 223.384765625 472 223.384765625 513.869140625 198.692382812 c 128,-1,37
 555.739257812 174 555.739257812 174 795 174 c 2,38,-1
 946 174 l 2,39,40
 1159.3046875 174 1159.3046875 174 1196.15234375 198.926757812 c 128,-1,41
 1233 223.852539062 1233 223.852539062 1233 345 c 2,42,-1
 1233 510 l 1,43,-1
 1436 510 l 1,44,-1
 1436 344 l 2,45,46
 1436 147.103515625 1436 147.103515625 1356.01269531 73.5517578125 c 128,-1,47
 1276.02539062 0 1276.02539062 0 1058 0 c 2,48,-1
 541 0 l 2,0,1
EndSplineSet
EndChar

StartChar: currency
Encoding: 164 164 98
Width: 1179
Flags: W
LayerCount: 2
Fore
SplineSet
137 764 m 256,0,1
 137 985.65234375 137 985.65234375 267 1110 c 1,2,-1
 113 1281 l 1,3,-1
 183 1351 l 1,4,-1
 347 1170 l 1,5,6
 443.181640625 1239 443.181640625 1239 590.184570312 1239 c 128,-1,7
 737.1875 1239 737.1875 1239 830 1173 c 1,8,-1
 996 1350 l 1,9,-1
 1068 1280 l 1,10,-1
 915 1111 l 1,11,12
 1047 984.739257812 1047 984.739257812 1047 764 c 256,13,14
 1047 543.260742188 1047 543.260742188 915 417 c 1,15,-1
 1069 247 l 1,16,-1
 997 178 l 1,17,-1
 834 357 l 1,18,19
 736.25 289 736.25 289 589.215820312 289 c 128,-1,20
 442.181640625 289 442.181640625 289 346 358 c 1,21,-1
 182 178 l 1,22,-1
 112 247 l 1,23,-1
 267 417 l 1,24,25
 137 541.34765625 137 541.34765625 137 764 c 256,0,1
255 772.5 m 0,26,27
 255 407 255 407 591 407 c 256,28,29
 768.5 407 768.5 407 848.25 497.580078125 c 128,-1,30
 928 588.16015625 928 588.16015625 928 725.580078125 c 0,31,32
 928 1138 928 1138 635.25 1138 c 0,33,34
 413.5 1138 413.5 1138 334.25 1047.98730469 c 128,-1,35
 255 957.975585938 255 957.975585938 255 772.5 c 0,26,27
EndSplineSet
EndChar

StartChar: yen
Encoding: 165 165 99
Width: 1176
Flags: W
LayerCount: 2
Fore
SplineSet
130 672 m 1,0,-1
 1046 672 l 1,1,-1
 1046 572 l 1,2,-1
 130 572 l 1,3,-1
 130 672 l 1,0,-1
1046 293 m 1,4,-1
 130 293 l 1,5,-1
 130 394 l 1,6,-1
 1046 394 l 1,7,-1
 1046 293 l 1,4,-1
705 0 m 1,8,-1
 484 0 l 1,9,-1
 484 510 l 1,10,-1
 17 1499 l 1,11,-1
 253 1499 l 1,12,-1
 600 717 l 1,13,-1
 954 1499 l 1,14,-1
 1180 1499 l 1,15,-1
 705 510 l 1,16,-1
 705 0 l 1,8,-1
EndSplineSet
EndChar

StartChar: brokenbar
Encoding: 166 166 100
Width: 521
Flags: W
LayerCount: 2
Fore
SplineSet
366 563 m 1,0,-1
 366 -249 l 1,1,-1
 157 -249 l 1,2,-1
 157 563 l 1,3,-1
 366 563 l 1,0,-1
366 1631 m 1,4,-1
 366 819 l 1,5,-1
 157 819 l 1,6,-1
 157 1631 l 1,7,-1
 366 1631 l 1,4,-1
EndSplineSet
EndChar

StartChar: section
Encoding: 167 167 101
Width: 1110
Flags: W
LayerCount: 2
Fore
SplineSet
980 206.599609375 m 128,-1,1
 980 46 980 46 949 -18 c 0,2,3
 873.921875 -173 873.921875 -173 602.939453125 -173 c 128,-1,4
 331.958007812 -173 331.958007812 -173 225.478515625 -108.384765625 c 128,-1,5
 119 -43.76953125 119 -43.76953125 119 177 c 1,6,-1
 311 177 l 1,7,8
 311 23.9013671875 311 23.9013671875 379.638671875 -23.3583984375 c 128,-1,9
 448.278320312 -70.6181640625 448.278320312 -70.6181640625 678 -37 c 0,10,11
 787 -21.048828125 787 -21.048828125 787 141.952148438 c 128,-1,12
 787 304.954101562 787 304.954101562 736.5 334.4765625 c 128,-1,13
 686 364 686 364 642 369 c 128,-1,14
 598 374 598 374 546.5 381.5 c 128,-1,15
 495 389 495 389 444 396 c 128,-1,16
 393 403 393 403 319.364257812 422.420898438 c 128,-1,17
 245.728515625 441.840820312 245.728515625 441.840820312 190.364257812 505.946289062 c 128,-1,18
 135 570.052734375 135 570.052734375 135 726.908203125 c 128,-1,19
 135 883.764648438 135 883.764648438 243 960 c 1,20,21
 138 1044.89355469 138 1044.89355469 138 1247.27832031 c 128,-1,22
 138 1449.66308594 138 1449.66308594 239.057617188 1514.83203125 c 128,-1,23
 340.116210938 1580 340.116210938 1580 558.079101562 1580 c 128,-1,24
 776.041992188 1580 776.041992188 1580 882.521484375 1515.38476562 c 128,-1,25
 989 1450.76953125 989 1450.76953125 989 1230 c 1,26,-1
 797 1230 l 1,27,28
 797 1381.79980469 797 1381.79980469 749 1415.40039062 c 128,-1,29
 701 1449 701 1449 556.700195312 1449 c 128,-1,30
 412.400390625 1449 412.400390625 1449 371.700195312 1415.08300781 c 128,-1,31
 331 1381.16699219 331 1381.16699219 331 1288.08300781 c 128,-1,32
 331 1195 331 1195 335 1159 c 128,-1,33
 339 1123 339 1123 349 1101 c 128,-1,34
 359 1079 359 1079 376 1067.5 c 128,-1,35
 393 1056 393 1056 418.5 1050 c 128,-1,36
 444 1044 444 1044 479 1039 c 128,-1,37
 514 1034 514 1034 569 1022.5 c 128,-1,38
 624 1011 624 1011 680 1001.5 c 128,-1,39
 736 992 736 992 811.024414062 972.046875 c 128,-1,40
 886.048828125 952.09375 886.048828125 952.09375 934.524414062 892.431640625 c 128,-1,41
 983 832.76953125 983 832.76953125 983 679.217773438 c 128,-1,42
 983 525.666992188 983 525.666992188 869 456 c 1,43,0
 980 367.200195312 980 367.200195312 980 206.599609375 c 128,-1,1
333 744.75 m 128,-1,45
 333 678 333 678 340.5 645 c 128,-1,46
 348 612 348 612 366.5 591 c 128,-1,47
 385 570 385 570 416 558.5 c 128,-1,48
 447 547 447 547 493.5 539.5 c 128,-1,49
 540 532 540 532 603.5 526 c 128,-1,50
 667 520 667 520 751 510 c 1,51,52
 785 547.77734375 785 547.77734375 785 624.388671875 c 128,-1,53
 785 701 785 701 779 738.5 c 128,-1,54
 773 776 773 776 756.5 798 c 128,-1,55
 740 820 740 820 710.5 830.5 c 128,-1,56
 681 841 681 841 634 850 c 128,-1,57
 587 859 587 859 519.5 870.5 c 128,-1,58
 452 882 452 882 360 906 c 1,59,44
 333 811.5 333 811.5 333 744.75 c 128,-1,45
EndSplineSet
EndChar

StartChar: dieresis
Encoding: 168 168 102
Width: 1141
Flags: W
LayerCount: 2
Fore
SplineSet
418 233 m 256,0,1
 418 79 418 79 244.280273438 79 c 0,2,3
 193.560546875 79 193.560546875 79 148.780273438 122.713867188 c 128,-1,4
 104 166.428710938 104 166.428710938 104 233 c 256,5,6
 104 337.771484375 104 337.771484375 197.5 375.5 c 0,7,8
 226 387 226 387 260 387 c 256,9,10
 367.473632812 387 367.473632812 387 406 295.5 c 0,11,12
 418 267 418 267 418 233 c 256,0,1
1052 233 m 256,13,14
 1052 79 1052 79 878.280273438 79 c 0,15,16
 827.560546875 79 827.560546875 79 782.780273438 122.713867188 c 128,-1,17
 738 166.428710938 738 166.428710938 738 233 c 256,18,19
 738 337.771484375 738 337.771484375 831.5 375.5 c 0,20,21
 860 387 860 387 894 387 c 256,22,23
 1001.47363281 387 1001.47363281 387 1040 295.5 c 0,24,25
 1052 267 1052 267 1052 233 c 256,13,14
EndSplineSet
EndChar

StartChar: copyright
Encoding: 169 169 103
Width: 1781
Flags: W
LayerCount: 2
Fore
SplineSet
171 858 m 256,0,1
 171 558 171 558 384.5 344.5 c 128,-1,2
 598 131 598 131 898 131 c 256,3,4
 1198 131 1198 131 1411.5 344.5 c 128,-1,5
 1625 558 1625 558 1625 858 c 256,6,7
 1625 1158 1625 1158 1411.5 1371.5 c 128,-1,8
 1198 1585 1198 1585 898 1585 c 256,9,10
 598 1585 598 1585 384.5 1371.5 c 128,-1,11
 171 1158 171 1158 171 858 c 256,0,1
898 1673 m 256,12,13
 1236 1673 1236 1673 1474.5 1434.5 c 128,-1,14
 1713 1196 1713 1196 1713 858 c 256,15,16
 1713 520 1713 520 1474.5 281.5 c 128,-1,17
 1236 43 1236 43 898 43 c 256,18,19
 560 43 560 43 321.5 281.5 c 128,-1,20
 83 520 83 520 83 858 c 128,-1,21
 83 1196 83 1196 321.5 1434.5 c 128,-1,22
 560 1673 560 1673 898 1673 c 256,12,13
1321 725 m 1,23,24
 1321 440.952148438 1321 440.952148438 1241.38671875 373.9765625 c 128,-1,25
 1161.7734375 307 1161.7734375 307 935.956054688 307 c 128,-1,26
 710.137695312 307 710.137695312 307 619.329101562 332.818359375 c 0,27,28
 448 381.529296875 448 381.529296875 448 769 c 2,29,-1
 448 946 l 2,30,31
 448 1259.74316406 448 1259.74316406 528.66796875 1327.734375 c 128,-1,32
 609.3359375 1395.72558594 609.3359375 1395.72558594 713.66796875 1401.86328125 c 128,-1,33
 818 1408 818 1408 950.944335938 1408 c 128,-1,34
 1083.88867188 1408 1083.88867188 1408 1165.41503906 1384.33105469 c 0,35,36
 1321 1339.16113281 1321 1339.16113281 1321 990 c 1,37,-1
 1166 990 l 1,38,39
 1166 1216.09667969 1166 1216.09667969 1141.5 1244.54882812 c 0,40,41
 1099.77734375 1293 1099.77734375 1293 921.099609375 1293 c 128,-1,42
 742.420898438 1293 742.420898438 1293 690.473632812 1278.04589844 c 128,-1,43
 638.526367188 1263.09082031 638.526367188 1263.09082031 624.263671875 1198.48632812 c 128,-1,44
 610 1133.8828125 610 1133.8828125 610 946 c 2,45,-1
 610 769 l 2,46,47
 610 511.200195312 610 511.200195312 638 477.599609375 c 0,48,49
 684.333007812 422 684.333007812 422 866.548828125 422 c 128,-1,50
 1048.76464844 422 1048.76464844 422 1095.15820312 435.59765625 c 128,-1,51
 1141.55175781 449.196289062 1141.55175781 449.196289062 1153.77539062 503.797851562 c 128,-1,52
 1166 558.400390625 1166 558.400390625 1166 725 c 1,53,-1
 1321 725 l 1,23,24
EndSplineSet
EndChar

StartChar: guillemotleft
Encoding: 171 171 105
Width: 1296
Flags: W
LayerCount: 2
Fore
SplineSet
676 245 m 0,0,1
 676 178 676 178 607 178 c 0,2,3
 565.142578125 178 565.142578125 178 536 202 c 1,4,-1
 109 574 l 2,5,6
 43 631.75 43 631.75 43 715.875 c 0,7,8
 43 800 43 800 109 858 c 2,9,-1
 536 1229 l 1,10,11
 573.5 1254 573.5 1254 606.25 1254 c 0,12,13
 676 1254 676 1254 676 1187 c 0,14,15
 676 1163.27246094 676 1163.27246094 650 1116 c 1,16,-1
 283 716 l 1,17,-1
 650 316 l 1,18,19
 676 271.090820312 676 271.090820312 676 245 c 0,0,1
1227 245 m 0,20,21
 1227 178 1227 178 1158 178 c 0,22,23
 1116.14257812 178 1116.14257812 178 1087 202 c 1,24,-1
 660 574 l 2,25,26
 593 632.87890625 593 632.87890625 593 716 c 256,27,28
 593 800.852539062 593 800.852539062 660 858 c 2,29,-1
 1087 1229 l 1,30,31
 1124.5 1254 1124.5 1254 1157.25 1254 c 0,32,33
 1227 1254 1227 1254 1227 1187 c 0,34,35
 1227 1163.27246094 1227 1163.27246094 1201 1116 c 1,36,-1
 834 716 l 1,37,-1
 1201 316 l 1,38,39
 1227 271.090820312 1227 271.090820312 1227 245 c 0,20,21
EndSplineSet
EndChar

StartChar: logicalnot
Encoding: 172 172 106
Width: 1223
Flags: W
LayerCount: 2
Fore
SplineSet
937 294 m 1,0,-1
 937 773 l 1,1,-1
 34 773 l 1,2,-1
 34 912 l 1,3,-1
 1084 912 l 5,4,-1
 1084 294 l 5,5,-1
 937 294 l 1,0,-1
EndSplineSet
EndChar

StartChar: uni00AD
Encoding: 173 173 107
Width: 1098
Flags: W
LayerCount: 2
Fore
SplineSet
987 569 m 1,0,-1
 120 569 l 1,1,-1
 120 768 l 5,2,-1
 987 768 l 5,3,-1
 987 569 l 1,0,-1
EndSplineSet
EndChar

StartChar: registered
Encoding: 174 174 108
Width: 1781
Flags: W
LayerCount: 2
Fore
SplineSet
1304 1084.55273438 m 128,-1,1
 1304 868.555664062 1304 868.555664062 1108 853 c 1,2,3
 1243.44042969 847.111328125 1243.44042969 847.111328125 1284.5 742 c 0,4,5
 1297 710 1297 710 1297 674 c 2,6,-1
 1297 323 l 1,7,-1
 1138 323 l 1,8,-1
 1138 629 l 2,9,10
 1138 744.333007812 1138 744.333007812 1110 767.666992188 c 128,-1,11
 1082 791 1082 791 974 791 c 2,12,-1
 690 791 l 1,13,-1
 690 322 l 1,14,-1
 529 322 l 1,15,-1
 529 1395 l 1,16,-1
 901 1395 l 2,17,18
 1102.38476562 1395 1102.38476562 1395 1170.69238281 1363 c 0,19,0
 1304 1300.54980469 1304 1300.54980469 1304 1084.55273438 c 128,-1,1
901 900 m 2,20,21
 1058.04492188 900 1058.04492188 900 1101.02246094 936.490234375 c 128,-1,22
 1144 972.981445312 1144 972.981445312 1144 1101.11328125 c 128,-1,23
 1144 1229.24609375 1144 1229.24609375 1091.38378906 1255.12304688 c 128,-1,24
 1038.76660156 1281 1038.76660156 1281 899 1281 c 2,25,-1
 690 1281 l 1,26,-1
 690 900 l 1,27,-1
 901 900 l 2,20,21
171 858 m 256,28,29
 171 558 171 558 384.5 344.5 c 128,-1,30
 598 131 598 131 898 131 c 256,31,32
 1198 131 1198 131 1411.5 344.5 c 128,-1,33
 1625 558 1625 558 1625 858 c 256,34,35
 1625 1158 1625 1158 1411.5 1371.5 c 128,-1,36
 1198 1585 1198 1585 898 1585 c 256,37,38
 598 1585 598 1585 384.5 1371.5 c 128,-1,39
 171 1158 171 1158 171 858 c 256,28,29
898 1673 m 256,40,41
 1236 1673 1236 1673 1474.5 1434.5 c 128,-1,42
 1713 1196 1713 1196 1713 858 c 256,43,44
 1713 520 1713 520 1474.5 281.5 c 128,-1,45
 1236 43 1236 43 898 43 c 256,46,47
 560 43 560 43 321.5 281.5 c 128,-1,48
 83 520 83 520 83 858 c 128,-1,49
 83 1196 83 1196 321.5 1434.5 c 128,-1,50
 560 1673 560 1673 898 1673 c 256,40,41
EndSplineSet
EndChar

StartChar: macron
Encoding: 175 175 109
Width: 873
Flags: W
LayerCount: 2
Fore
SplineSet
779 711 m 1,0,-1
 112 711 l 1,1,-1
 112 838 l 1,2,-1
 779 838 l 1,3,-1
 779 711 l 1,0,-1
EndSplineSet
EndChar

StartChar: degree
Encoding: 176 176 110
Width: 871
Flags: W
LayerCount: 2
Fore
SplineSet
91 1321 m 256,0,1
 91 1516.18652344 91 1516.18652344 313.5 1579.5 c 0,2,3
 375 1597 375 1597 471.891601562 1597 c 128,-1,4
 568.782226562 1597 568.782226562 1597 674.391601562 1523.39355469 c 128,-1,5
 780 1449.78808594 780 1449.78808594 780 1321 c 256,6,7
 780 1192.90917969 780 1192.90917969 674.608398438 1119.45410156 c 128,-1,8
 569.217773438 1046 569.217773438 1046 435 1046 c 256,9,10
 215.6015625 1046 215.6015625 1046 122 1201.5 c 0,11,12
 91 1253 91 1253 91 1321 c 256,0,1
435 1155 m 256,13,14
 583 1155 583 1155 583 1321 c 256,15,16
 583 1430.52734375 583 1430.52734375 497.5 1472.5 c 0,17,18
 470 1486 470 1486 435 1486 c 256,19,20
 290 1486 290 1486 290 1321 c 256,21,22
 290 1210 290 1210 373 1168.5 c 0,23,24
 400 1155 400 1155 435 1155 c 256,13,14
EndSplineSet
EndChar

StartChar: plusminus
Encoding: 177 177 111
Width: 1006
Flags: W
LayerCount: 2
Fore
SplineSet
605 1117 m 1,0,-1
 605 754 l 1,1,-1
 948 754 l 1,2,-1
 948 585 l 1,3,-1
 605 585 l 1,4,-1
 605 223 l 1,5,-1
 419 223 l 1,6,-1
 419 585 l 1,7,-1
 77 585 l 1,8,-1
 77 754 l 1,9,-1
 419 754 l 1,10,-1
 419 1117 l 1,11,-1
 605 1117 l 1,0,-1
949 -24 m 1,12,-1
 76 -24 l 1,13,-1
 76 139 l 1,14,-1
 949 139 l 1,15,-1
 949 -24 l 1,12,-1
EndSplineSet
EndChar

StartChar: acute
Encoding: 180 180 114
Width: 683
Flags: W
LayerCount: 2
Fore
SplineSet
529.985351562 1640 m 0,0,1
 632 1640 632 1640 632 1527.47265625 c 0,2,3
 632 1475.5 632 1475.5 557 1438 c 1,4,5
 536.213867188 1420.67871094 536.213867188 1420.67871094 331.107421875 1356.33886719 c 128,-1,6
 126 1292 126 1292 109.5 1292 c 128,-1,7
 93 1292 93 1292 93 1308.5 c 128,-1,8
 93 1325 93 1325 112 1341 c 1,9,-1
 129.5 1357 l 2,10,11
 361.33984375 1568.96777344 361.33984375 1568.96777344 423.8515625 1604.484375 c 128,-1,12
 486.36328125 1640 486.36328125 1640 529.985351562 1640 c 0,0,1
EndSplineSet
EndChar

StartChar: paragraph
Encoding: 182 182 116
Width: 1183
Flags: W
LayerCount: 2
Fore
SplineSet
497 795 m 1,0,1
 22 795 22 795 22 1158 c 128,-1,2
 22 1521 22 1521 599 1521 c 2,3,-1
 1026 1521 l 1,4,-1
 1026 0 l 1,5,-1
 854 0 l 1,6,-1
 854 794 l 1,7,-1
 670 794 l 1,8,-1
 670 0 l 1,9,-1
 497 0 l 1,10,-1
 497 795 l 1,0,1
EndSplineSet
EndChar

StartChar: cedilla
Encoding: 184 184 117
Width: 716
Flags: W
LayerCount: 2
Fore
SplineSet
389 -371 m 0,0,1
 389 -289 389 -289 235 -289 c 1,2,3
 241 -263 241 -263 247 -243 c 128,-1,4
 253 -223 253 -223 260.5 -197 c 128,-1,5
 268 -171 268 -171 276 -144 c 2,6,-1
 318 0 l 1,7,-1
 440 0 l 1,8,-1
 386 -168 l 1,9,10
 401 -170 401 -170 425 -172 c 0,11,12
 631 -189.166992188 631 -189.166992188 631 -341.727539062 c 0,13,14
 631 -455.055664062 631 -455.055664062 556.1015625 -506.02734375 c 128,-1,15
 481.204101562 -557 481.204101562 -557 390.3515625 -557 c 128,-1,16
 299.5 -557 299.5 -557 184.25 -524.071289062 c 128,-1,17
 69 -491.142578125 69 -491.142578125 69 -432.071289062 c 128,-1,18
 69 -373 69 -373 122 -373 c 0,19,20
 134 -373 134 -373 187.454101562 -401 c 128,-1,21
 240.909179688 -429 240.909179688 -429 314.954101562 -429 c 128,-1,22
 389 -429 389 -429 389 -371 c 0,0,1
EndSplineSet
EndChar

StartChar: guillemotright
Encoding: 187 187 120
Width: 1298
Flags: W
LayerCount: 2
Fore
SplineSet
87 1188.13671875 m 0,0,1
 87 1254 87 1254 156.75 1254 c 0,2,3
 189.5 1254 189.5 1254 227 1229 c 1,4,-1
 654 858 l 2,5,6
 721 800.852539062 721 800.852539062 721 716 c 256,7,8
 721 632.87890625 721 632.87890625 654 574 c 2,9,-1
 227 202 l 1,10,11
 197.857421875 178 197.857421875 178 156 178 c 0,12,13
 87 178 87 178 87 245 c 0,14,15
 87 271.090820312 87 271.090820312 113 316 c 1,16,-1
 480 716 l 1,17,-1
 113 1116 l 1,18,19
 87 1163.27246094 87 1163.27246094 87 1188.13671875 c 0,0,1
638 1188.13671875 m 0,20,21
 638 1254 638 1254 707.75 1254 c 0,22,23
 740.5 1254 740.5 1254 778 1229 c 1,24,-1
 1205 858 l 2,25,26
 1271 800 1271 800 1271 715.875 c 128,-1,27
 1271 631.75 1271 631.75 1205 574 c 2,28,-1
 778 202 l 1,29,30
 748.857421875 178 748.857421875 178 707 178 c 0,31,32
 638 178 638 178 638 245 c 0,33,34
 638 271.090820312 638 271.090820312 664 316 c 1,35,-1
 1031 716 l 1,36,-1
 664 1116 l 1,37,38
 638 1163.27246094 638 1163.27246094 638 1188.13671875 c 0,20,21
EndSplineSet
EndChar

StartChar: questiondown
Encoding: 191 191 124
Width: 728
Flags: W
LayerCount: 2
Fore
SplineSet
42 286.422851562 m 128,-1,1
 42 412 42 412 67 472.5 c 0,2,3
 108.706054688 573.4296875 108.706054688 573.4296875 252.68359375 725.231445312 c 128,-1,4
 396.661132812 877.034179688 396.661132812 877.034179688 413 1020 c 1,5,6
 437 1028 437 1028 462.642578125 1028 c 128,-1,7
 488.286132812 1028 488.286132812 1028 505 1015 c 1,8,9
 505 807.200195312 505 807.200195312 381.5 630.5 c 128,-1,10
 258 453.799804688 258 453.799804688 258 356 c 0,11,12
 258 160 258 160 461 160 c 0,13,14
 539.400390625 160 539.400390625 160 713 202 c 1,15,16
 737 58 737 58 740 37 c 1,17,18
 326.560546875 -106.11328125 326.560546875 -106.11328125 141.5 67.5 c 0,19,0
 42 160.845703125 42 160.845703125 42 286.422851562 c 128,-1,1
310 1392 m 256,20,21
 310 1546 310 1546 483.719726562 1546 c 0,22,23
 534.439453125 1546 534.439453125 1546 579.219726562 1502.28613281 c 128,-1,24
 624 1458.57128906 624 1458.57128906 624 1392 c 256,25,26
 624 1287.22851562 624 1287.22851562 530.5 1249.5 c 0,27,28
 502 1238 502 1238 468 1238 c 256,29,30
 360.526367188 1238 360.526367188 1238 322 1329.5 c 0,31,32
 310 1358 310 1358 310 1392 c 256,20,21
EndSplineSet
EndChar

StartChar: AE
Encoding: 198 198 131
Width: 2090
Flags: W
LayerCount: 2
Fore
SplineSet
1249 703 m 1,0,-1
 1249 160 l 1,1,-1
 1991 160 l 1,2,-1
 1991 0 l 1,3,-1
 1026 0 l 1,4,-1
 1026 389 l 1,5,-1
 433 389 l 1,6,-1
 193 0 l 1,7,-1
 -10 0 l 1,8,-1
 936 1499 l 1,9,-1
 1973 1499 l 1,10,-1
 1973 1339 l 1,11,-1
 1249 1339 l 1,12,-1
 1249 863 l 1,13,-1
 1883 863 l 1,14,-1
 1883 703 l 1,15,-1
 1249 703 l 1,0,-1
1026 521 m 1,16,-1
 1026 1373 l 1,17,-1
 516 521 l 1,18,-1
 1026 521 l 1,16,-1
EndSplineSet
EndChar

StartChar: Eth
Encoding: 208 208 141
Width: 1491
Flags: W
LayerCount: 2
Fore
SplineSet
707 834 m 5
 707 731 l 5
 0 731 l 5
 0 834 l 5
 707 834 l 5
EndSplineSet
Refer: 36 68 N 1 0 0 1 0 0 2
EndChar

StartChar: multiply
Encoding: 215 215 148
Width: 911
Flags: W
LayerCount: 2
Fore
SplineSet
568 670 m 1,0,-1
 818 420 l 1,1,-1
 686 288 l 1,2,-1
 436 538 l 1,3,-1
 186 288 l 1,4,-1
 54 420 l 1,5,-1
 304 670 l 1,6,-1
 54 920 l 1,7,-1
 186 1052 l 1,8,-1
 436 802 l 1,9,-1
 686 1052 l 1,10,-1
 818 920 l 1,11,-1
 568 670 l 1,0,-1
EndSplineSet
EndChar

StartChar: Oslash
Encoding: 216 216 149
Width: 1514
Flags: W
LayerCount: 2
Fore
SplineSet
1110 1639 m 1
 482 -150 l 1
 380 -150 l 1
 1008 1639 l 1
 1110 1639 l 1
EndSplineSet
Refer: 47 79 N 1 0 0 1 1 0 2
EndChar

StartChar: Thorn
Encoding: 222 222 155
Width: 1358
Flags: W
LayerCount: 2
Fore
SplineSet
741 1299 m 2,0,1
 986.857421875 1299 986.857421875 1299 1067.42871094 1251 c 0,2,3
 1251 1141.63867188 1251 1141.63867188 1251 913.931640625 c 0,4,5
 1251 491.897460938 1251 491.897460938 1024.51855469 428.017578125 c 0,6,7
 918.090820312 398 918.090820312 398 727 398 c 2,8,-1
 384 398 l 1,9,-1
 384 0 l 1,10,-1
 163 0 l 1,11,-1
 163 1498 l 1,12,-1
 384 1498 l 1,13,-1
 384 1299 l 1,14,-1
 741 1299 l 2,0,1
721 559 m 2,15,16
 937.666992188 559 937.666992188 559 984.833007812 612.0625 c 128,-1,17
 1032 665.125 1032 665.125 1032 863.854492188 c 128,-1,18
 1032 1062.58398438 1032 1062.58398438 966.947265625 1102.29199219 c 128,-1,19
 901.893554688 1142 901.893554688 1142 727 1142 c 2,20,-1
 384 1142 l 1,21,-1
 384 559 l 1,22,-1
 721 559 l 2,15,16
EndSplineSet
EndChar

StartChar: germandbls
Encoding: 223 223 156
Width: 1319
Flags: W
LayerCount: 2
Fore
SplineSet
1125 1095.09179688 m 128,-1,1
 1125 842.489257812 1125 842.489257812 962 828 c 1,2,3
 1208 806.293945312 1208 806.293945312 1208 481.147460938 c 128,-1,4
 1208 156 1208 156 1084.27539062 78 c 128,-1,5
 960.551757812 0 960.551757812 0 659 0 c 2,6,-1
 496 0 l 1,7,-1
 496 157 l 1,8,-1
 658 157 l 2,9,10
 897.5 157 897.5 157 929.75 178.5 c 0,11,12
 989 218 989 218 989 403.412109375 c 128,-1,13
 989 588.823242188 989 588.823242188 975.848632812 649.165039062 c 128,-1,14
 962.697265625 709.506835938 962.697265625 709.506835938 902.073242188 725.25390625 c 128,-1,15
 841.450195312 741 841.450195312 741 644 741 c 2,16,-1
 532 741 l 1,17,-1
 532 887 l 1,18,-1
 625 887 l 2,19,20
 841.8515625 887 841.8515625 887 868.42578125 907.5 c 0,21,22
 914 942.657226562 914 942.657226562 914 1091.36230469 c 128,-1,23
 914 1240.06640625 914 1240.06640625 902.25390625 1280.78710938 c 0,24,25
 884.595703125 1342 884.595703125 1342 690.7265625 1342 c 128,-1,26
 496.857421875 1342 496.857421875 1342 447.752929688 1330.91210938 c 128,-1,27
 398.649414062 1319.82421875 398.649414062 1319.82421875 386.32421875 1273.8125 c 128,-1,28
 374 1227.79980469 374 1227.79980469 374 1090 c 2,29,-1
 375 -150 l 1,30,-1
 154 -150 l 1,31,-1
 155 1102 l 2,32,33
 155 1438.83886719 155 1438.83886719 435 1484 c 0,34,35
 528 1499 528 1499 717.633789062 1499 c 128,-1,36
 907.268554688 1499 907.268554688 1499 1016.13378906 1423.34765625 c 128,-1,0
 1125 1347.6953125 1125 1347.6953125 1125 1095.09179688 c 128,-1,1
EndSplineSet
EndChar

StartChar: oslash
Encoding: 248 248 180
Width: 1243
Flags: W
LayerCount: 2
Fore
SplineSet
849 1326 m 1
 491 -173 l 1
 418 -173 l 1
 776 1326 l 1
 849 1326 l 1
EndSplineSet
Refer: 79 111 N 1 0 0 1 -2 0 2
EndChar

StartChar: thorn
Encoding: 254 254 186
Width: 1282
Flags: W
LayerCount: 2
Fore
SplineSet
701.228515625 1180 m 128,-1,1
 965.400390625 1180 965.400390625 1180 1060.20019531 1096.35253906 c 128,-1,2
 1155 1012.70605469 1155 1012.70605469 1155 808 c 2,3,-1
 1155 387 l 2,4,5
 1155 155.708007812 1155 155.708007812 1075.03027344 65.853515625 c 128,-1,6
 995.059570312 -24 995.059570312 -24 724.137695312 -24 c 128,-1,7
 453.215820312 -24 453.215820312 -24 380 105 c 1,8,-1
 380 -402 l 1,9,-1
 163 -402 l 1,10,-1
 163 1594 l 1,11,-1
 379 1594 l 1,12,-1
 379 1053 l 1,13,0
 437.057617188 1180 437.057617188 1180 701.228515625 1180 c 128,-1,1
380 799 m 2,14,-1
 380 342 l 2,15,16
 380 196.111328125 380 196.111328125 412.125 167.555664062 c 128,-1,17
 444.25 139 444.25 139 619.852539062 139 c 128,-1,18
 795.454101562 139 795.454101562 139 851.39453125 147.91796875 c 128,-1,19
 907.333984375 156.8359375 907.333984375 156.8359375 921.666992188 192.66796875 c 128,-1,20
 936 228.5 936 228.5 936 342 c 2,21,-1
 936 799 l 2,22,23
 936 962.818359375 936 962.818359375 910.5 982.909179688 c 128,-1,24
 885 1003 885 1003 850.384765625 1010.5 c 128,-1,25
 815.76953125 1018 815.76953125 1018 663.154296875 1018 c 128,-1,26
 510.538085938 1018 510.538085938 1018 457.500976562 1007.05566406 c 128,-1,27
 404.462890625 996.111328125 404.462890625 996.111328125 392.231445312 956.155273438 c 128,-1,28
 380 916.200195312 380 916.200195312 380 799 c 2,14,-1
EndSplineSet
EndChar

StartChar: uni0111
Encoding: 273 273 203
Width: 1272
Flags: W
LayerCount: 2
Fore
SplineSet
1272 1455.20019531 m 5
 1272 1352.20019531 l 5
 565 1352.20019531 l 5
 565 1455.20019531 l 5
 1272 1455.20019531 l 5
EndSplineSet
Refer: 68 100 N 1 0 0 1 0 0 2
EndChar

StartChar: dotlessi
Encoding: 305 305 227
Width: 517
Flags: W
LayerCount: 2
Fore
SplineSet
365 0 m 1,0,-1
 146 0 l 1,1,-1
 146 1147 l 1,2,-1
 365 1147 l 1,3,-1
 365 0 l 1,0,-1
EndSplineSet
EndChar

StartChar: kgreenlandic
Encoding: 312 312 234
Width: 1174
Flags: W
LayerCount: 2
Fore
SplineSet
363 0 m 1,0,-1
 146 0 l 1,1,-1
 146 1147 l 1,2,-1
 363 1147 l 1,3,-1
 363 630 l 1,4,-1
 841 1147 l 1,5,-1
 1091 1147 l 1,6,-1
 611 644 l 1,7,-1
 1127 0 l 1,8,-1
 884 0 l 1,9,-1
 460 538 l 1,10,-1
 363 451 l 1,11,-1
 363 0 l 1,0,-1
EndSplineSet
EndChar

StartChar: dotlessj
Encoding: 567 567 294
Width: 509
Flags: W
LayerCount: 2
Fore
SplineSet
355 -49 m 2,0,1
 355 -311 355 -311 114.5 -311 c 0,2,3
 37.6669921875 -311 37.6669921875 -311 -44 -297 c 1,4,-1
 -48 -156 l 1,5,-1
 138 -156 l 1,6,-1
 138 1147 l 1,7,-1
 355 1147 l 1,8,-1
 355 -49 l 2,0,1
EndSplineSet
EndChar

StartChar: circumflex
Encoding: 710 710 295
Width: 809
Flags: W
LayerCount: 2
Fore
SplineSet
725 1430.6875 m 128,-1,1
 725 1401 725 1401 696 1401 c 128,-1,2
 667 1401 667 1401 646 1416 c 1,3,-1
 414 1627 l 1,4,-1
 183 1416 l 1,5,6
 162 1401 162 1401 133 1401 c 128,-1,7
 104 1401 104 1401 104 1431 c 128,-1,8
 104 1461 104 1461 118 1481 c 2,9,-1
 309 1754 l 2,10,11
 339.608398438 1798 339.608398438 1798 414 1798 c 256,12,13
 487.478515625 1798 487.478515625 1798 520 1754 c 1,14,-1
 710 1481 l 2,15,0
 725 1460.375 725 1460.375 725 1430.6875 c 128,-1,1
EndSplineSet
EndChar

StartChar: caron
Encoding: 711 711 296
Width: 712
Flags: W
LayerCount: 2
Fore
SplineSet
50 1636 m 128,-1,1
 50 1666 50 1666 79 1666 c 128,-1,2
 108 1666 108 1666 129 1651 c 1,3,-1
 360 1440 l 1,4,-1
 592 1651 l 1,5,6
 613 1666 613 1666 642 1666 c 128,-1,7
 671 1666 671 1666 671 1636.3125 c 128,-1,8
 671 1606.625 671 1606.625 656 1586 c 2,9,-1
 466 1313 l 2,10,11
 435.391601562 1269 435.391601562 1269 360 1269 c 256,12,13
 285.608398438 1269 285.608398438 1269 255 1313 c 2,14,-1
 64 1586 l 2,15,0
 50 1606 50 1606 50 1636 c 128,-1,1
EndSplineSet
EndChar

StartChar: breve
Encoding: 728 728 297
Width: 775
Flags: W
LayerCount: 2
Fore
SplineSet
397 1448 m 256,0,1
 38 1448 38 1448 38 1798 c 1,2,-1
 186 1798 l 1,3,4
 180.62890625 1584 180.62890625 1584 397 1584 c 256,5,6
 613.3671875 1584 613.3671875 1584 609 1798 c 1,7,-1
 759 1798 l 1,8,9
 759 1448 759 1448 397 1448 c 256,0,1
EndSplineSet
EndChar

StartChar: ring
Encoding: 730 730 299
Width: 887
Flags: W
LayerCount: 2
Fore
SplineSet
142 400.56640625 m 128,-1,1
 142 677 142 677 448.5 677 c 128,-1,2
 755 677 755 677 755 400.56640625 c 128,-1,3
 755 124.1328125 755 124.1328125 448.5 124.1328125 c 128,-1,0
 142 124.1328125 142 124.1328125 142 400.56640625 c 128,-1,1
446 243 m 256,4,5
 593.5234375 243 593.5234375 243 593.5234375 401.5 c 128,-1,6
 593.5234375 560 593.5234375 560 447.26171875 560 c 128,-1,7
 301 560 301 560 301 401.5 c 128,-1,8
 301 243 301 243 446 243 c 256,4,5
EndSplineSet
EndChar

StartChar: ogonek
Encoding: 731 731 300
Width: 709
Flags: W
LayerCount: 2
Fore
SplineSet
587 -373 m 0,0,1
 628 -373 628 -373 628 -413 c 256,2,3
 628 -486 628 -486 494.875 -521.5 c 0,4,5
 361.75 -557 361.75 -557 290 -557 c 0,6,7
 76 -557 76 -557 76 -409 c 0,8,9
 76 -230.213867188 76 -230.213867188 348 -16.5 c 1,10,-1
 368 0 l 1,11,-1
 490 0 l 1,12,13
 287 -189.159179688 287 -189.159179688 287 -309.079101562 c 0,14,15
 287 -429 287 -429 385 -429 c 0,16,17
 452 -429 452 -429 513.5 -401 c 128,-1,18
 575 -373 575 -373 587 -373 c 0,0,1
EndSplineSet
EndChar

StartChar: tilde
Encoding: 732 732 301
Width: 1073
Flags: W
LayerCount: 2
Fore
SplineSet
253.5 492 m 128,-1,1
 212 492 212 492 189.5 483 c 128,-1,2
 167 474 167 474 149.5 463 c 128,-1,3
 132 452 132 452 119.5 443 c 128,-1,4
 107 434 107 434 95 434 c 128,-1,5
 83 434 83 434 83 447 c 128,-1,6
 83 460 83 460 99.5 486.5 c 0,7,8
 207.528320312 660 207.528320312 660 328.491210938 660 c 0,9,10
 449.454101562 660 449.454101562 660 619.5 602 c 128,-1,11
 789.545898438 544 789.545898438 544 827.772460938 544 c 128,-1,12
 866 544 866 544 888.5 553.5 c 128,-1,13
 911 563 911 563 928 574.5 c 128,-1,14
 945 586 945 586 957.5 595.5 c 128,-1,15
 970 605 970 605 982.5 605 c 128,-1,16
 995 605 995 605 995 592 c 128,-1,17
 995 579 995 579 977 552.5 c 0,18,19
 859.151367188 379 859.151367188 379 745.505859375 379 c 0,20,21
 631.860351562 379 631.860351562 379 523.930664062 418 c 128,-1,22
 416 457 416 457 355.5 474.5 c 128,-1,0
 295 492 295 492 253.5 492 c 128,-1,1
EndSplineSet
EndChar

StartChar: hungarumlaut
Encoding: 733 733 302
Width: 1174
Flags: W
LayerCount: 2
Fore
SplineSet
632 1527.47265625 m 0,0,1
 632 1475.5 632 1475.5 557 1438 c 1,2,3
 536.213867188 1420.67871094 536.213867188 1420.67871094 331.107421875 1356.33886719 c 128,-1,4
 126 1292 126 1292 109.5 1292 c 128,-1,5
 93 1292 93 1292 93 1308.5 c 128,-1,6
 93 1325 93 1325 112 1341 c 1,7,-1
 129.5 1357 l 2,8,9
 439.03125 1640 439.03125 1640 518.181640625 1640 c 0,10,11
 632 1640 632 1640 632 1527.47265625 c 0,0,1
1020.98535156 1640 m 0,12,13
 1123 1640 1123 1640 1123 1527.47265625 c 0,14,15
 1123 1475.5 1123 1475.5 1048 1438 c 1,16,17
 1027.21386719 1420.67871094 1027.21386719 1420.67871094 822.107421875 1356.33886719 c 128,-1,18
 617 1292 617 1292 600.5 1292 c 128,-1,19
 584 1292 584 1292 584 1308.5 c 128,-1,20
 584 1325 584 1325 603 1341 c 1,21,-1
 620.5 1357 l 2,22,23
 852.33984375 1568.96777344 852.33984375 1568.96777344 914.8515625 1604.484375 c 128,-1,24
 977.36328125 1640 977.36328125 1640 1020.98535156 1640 c 0,12,13
EndSplineSet
EndChar

StartChar: endash
Encoding: 8211 8211 306
Width: 1138
Flags: W
LayerCount: 2
Fore
SplineSet
1031 568 m 1,0,-1
 120 568 l 1,1,-1
 120 754 l 1,2,-1
 1031 754 l 1,3,-1
 1031 568 l 1,0,-1
EndSplineSet
EndChar

StartChar: emdash
Encoding: 8212 8212 307
Width: 1980
Flags: W
LayerCount: 2
Fore
SplineSet
1873 754 m 1,0,-1
 1873 568 l 1,1,-1
 120 568 l 1,2,-1
 120 754 l 1,3,-1
 1873 754 l 1,0,-1
EndSplineSet
EndChar

StartChar: quoteleft
Encoding: 8216 8216 308
Width: 576
Flags: W
LayerCount: 2
Fore
SplineSet
474 1160 m 0,0,1
 474 977 474 977 281.274414062 977 c 0,2,3
 221.548828125 977 221.548828125 977 162.274414062 1030.98242188 c 128,-1,4
 103 1084.96386719 103 1084.96386719 103 1210.00878906 c 128,-1,5
 103 1335.05273438 103 1335.05273438 203.955078125 1443.52636719 c 128,-1,6
 304.911132812 1552 304.911132812 1552 458 1552 c 1,7,-1
 458 1484 l 1,8,9
 367.440429688 1484 367.440429688 1484 328 1394.5 c 0,10,11
 315 1365 315 1365 315 1325 c 1,12,13
 474 1305.609375 474 1305.609375 474 1160 c 0,0,1
EndSplineSet
EndChar

StartChar: quoteright
Encoding: 8217 8217 309
Width: 572
Flags: W
LayerCount: 2
Fore
SplineSet
111 1371.5 m 0,0,1
 111 1441.421875 111 1441.421875 158.845703125 1496.7109375 c 128,-1,2
 206.692382812 1552 206.692382812 1552 285.071289062 1552 c 0,3,4
 363.451171875 1552 363.451171875 1552 422.725585938 1498.01757812 c 128,-1,5
 482 1444.03613281 482 1444.03613281 482 1318.99121094 c 0,6,7
 482 1193.94726562 482 1193.94726562 381.044921875 1085.47363281 c 128,-1,8
 280.088867188 977 280.088867188 977 127 977 c 1,9,-1
 127 1045 l 1,10,11
 217.559570312 1045 217.559570312 1045 257 1134.5 c 0,12,13
 270 1164 270 1164 270 1204 c 1,14,15
 111 1219.51171875 111 1219.51171875 111 1371.5 c 0,0,1
EndSplineSet
EndChar

StartChar: quotesinglbase
Encoding: 8218 8218 310
Width: 572
Flags: W
LayerCount: 2
Fore
SplineSet
291 336 m 256,0,1
 421.881835938 336 421.881835938 336 457.940429688 278.5 c 128,-1,2
 494 221 494 221 494 189 c 128,-1,3
 494 157 494 157 485 113.5 c 128,-1,4
 476 70 476 70 462 17.5 c 128,-1,5
 448 -35 448 -35 431 -92.5 c 128,-1,6
 414 -150 414 -150 398 -201.5 c 128,-1,7
 382 -253 382 -253 368.5 -294.5 c 128,-1,8
 355 -336 355 -336 345.974609375 -368 c 128,-1,9
 336.948242188 -400 336.948242188 -400 292.099609375 -400 c 128,-1,10
 247.25 -400 247.25 -400 236 -355 c 1,11,-1
 236 -357 l 1,12,13
 228 -326 228 -326 214.5 -281.5 c 128,-1,14
 201 -237 201 -237 186 -186 c 128,-1,15
 171 -135 171 -135 134.5 -11.8125 c 128,-1,16
 98 111.375 98 111.375 98 183.942382812 c 128,-1,17
 98 256.508789062 98 256.508789062 155.526367188 296.254882812 c 128,-1,18
 213.052734375 336 213.052734375 336 291 336 c 256,0,1
EndSplineSet
EndChar

StartChar: quotedblleft
Encoding: 8220 8220 311
Width: 1101
Flags: W
LayerCount: 2
Fore
SplineSet
999 1160 m 0,0,1
 999 977 999 977 806.274414062 977 c 0,2,3
 746.548828125 977 746.548828125 977 687.274414062 1030.98242188 c 128,-1,4
 628 1084.96386719 628 1084.96386719 628 1210.00878906 c 128,-1,5
 628 1335.05273438 628 1335.05273438 728.955078125 1443.52636719 c 128,-1,6
 829.911132812 1552 829.911132812 1552 983 1552 c 1,7,-1
 983 1484 l 1,8,9
 892.440429688 1484 892.440429688 1484 853 1394.5 c 0,10,11
 840 1365 840 1365 840 1325 c 1,12,13
 999 1305.609375 999 1305.609375 999 1160 c 0,0,1
474 1160 m 0,14,15
 474 977 474 977 281.274414062 977 c 0,16,17
 221.548828125 977 221.548828125 977 162.274414062 1030.98242188 c 128,-1,18
 103 1084.96386719 103 1084.96386719 103 1210.00878906 c 128,-1,19
 103 1335.05273438 103 1335.05273438 203.955078125 1443.52636719 c 128,-1,20
 304.911132812 1552 304.911132812 1552 458 1552 c 1,21,-1
 458 1484 l 1,22,23
 367.440429688 1484 367.440429688 1484 328 1394.5 c 0,24,25
 315 1365 315 1365 315 1325 c 1,26,27
 474 1305.609375 474 1305.609375 474 1160 c 0,14,15
EndSplineSet
EndChar

StartChar: quotedblright
Encoding: 8221 8221 312
Width: 1094
Flags: W
LayerCount: 2
Fore
SplineSet
633 1371.5 m 0,0,1
 633 1441.421875 633 1441.421875 680.845703125 1496.7109375 c 128,-1,2
 728.692382812 1552 728.692382812 1552 807.071289062 1552 c 0,3,4
 885.451171875 1552 885.451171875 1552 944.725585938 1498.01757812 c 128,-1,5
 1004 1444.03613281 1004 1444.03613281 1004 1318.99121094 c 0,6,7
 1004 1193.94726562 1004 1193.94726562 903.044921875 1085.47363281 c 128,-1,8
 802.088867188 977 802.088867188 977 649 977 c 1,9,-1
 649 1045 l 1,10,11
 739.559570312 1045 739.559570312 1045 779 1134.5 c 0,12,13
 792 1164 792 1164 792 1204 c 1,14,15
 633 1219.51171875 633 1219.51171875 633 1371.5 c 0,0,1
111 1371.5 m 0,16,17
 111 1441.421875 111 1441.421875 158.845703125 1496.7109375 c 128,-1,18
 206.692382812 1552 206.692382812 1552 285.071289062 1552 c 0,19,20
 363.451171875 1552 363.451171875 1552 422.725585938 1498.01757812 c 128,-1,21
 482 1444.03613281 482 1444.03613281 482 1318.99121094 c 0,22,23
 482 1193.94726562 482 1193.94726562 381.044921875 1085.47363281 c 128,-1,24
 280.088867188 977 280.088867188 977 127 977 c 1,25,-1
 127 1045 l 1,26,27
 217.559570312 1045 217.559570312 1045 257 1134.5 c 0,28,29
 270 1164 270 1164 270 1204 c 1,30,31
 111 1219.51171875 111 1219.51171875 111 1371.5 c 0,16,17
EndSplineSet
EndChar

StartChar: quotedblbase
Encoding: 8222 8222 313
Width: 705
Flags: W
LayerCount: 2
Fore
SplineSet
207 -275 m 128,-1,1
 190 -275 190 -275 146 -94.599609375 c 128,-1,2
 102 85.7998046875 102 85.7998046875 102 192.900390625 c 128,-1,3
 102 300 102 300 205.75 300 c 0,4,5
 248 300 248 300 279.5 268.5 c 128,-1,6
 311 237 311 237 311 202.5 c 128,-1,7
 311 168 311 168 306 135 c 128,-1,8
 301 102 301 102 293 59.5 c 128,-1,9
 285 17 285 17 275.5 -31.5 c 128,-1,10
 266 -80 266 -80 257 -123.5 c 128,-1,11
 248 -167 248 -167 240.5 -200.5 c 128,-1,12
 233 -234 233 -234 228.5 -254.5 c 128,-1,0
 224 -275 224 -275 207 -275 c 128,-1,1
520.75 300 m 128,-1,14
 563 300 563 300 594.5 268.5 c 128,-1,15
 626 237 626 237 626 202.5 c 128,-1,16
 626 168 626 168 621 135 c 128,-1,17
 616 102 616 102 608 59.5 c 128,-1,18
 600 17 600 17 590.5 -31.5 c 128,-1,19
 581 -80 581 -80 561.948242188 -177.5 c 128,-1,20
 542.896484375 -275 542.896484375 -275 517 -275 c 0,21,22
 484.12109375 -275 484.12109375 -275 450.560546875 -53.5 c 128,-1,23
 417 168 417 168 417 202.189453125 c 128,-1,24
 417 236.37890625 417 236.37890625 447.75 268.189453125 c 128,-1,13
 478.5 300 478.5 300 520.75 300 c 128,-1,14
EndSplineSet
EndChar

StartChar: dagger
Encoding: 8224 8224 314
Width: 859
Flags: W
LayerCount: 2
Fore
SplineSet
752.583007812 1084 m 0,0,1
 891 1084 891 1084 891 974.5 c 128,-1,2
 891 865 891 865 761.333007812 865 c 0,3,4
 692.666992188 865 692.666992188 865 483 939 c 1,5,-1
 561 146 l 1,6,7
 561 8 561 8 442 8 c 256,8,9
 323 8 323 8 323 146 c 1,10,11
 327 196 327 196 333 257 c 128,-1,12
 339 318 339 318 345 383 c 128,-1,13
 351 448 351 448 358 514.5 c 128,-1,14
 365 581 365 581 375 684.5 c 128,-1,15
 385 788 385 788 401 939 c 1,16,17
 191.333007812 865 191.333007812 865 122.666992188 865 c 0,18,19
 -7 865 -7 865 -7 974.5 c 128,-1,20
 -7 1084 -7 1084 104.5 1084 c 0,21,22
 185.629882812 1084 185.629882812 1084 278.314453125 1051.5 c 128,-1,23
 371 1019 371 1019 406 1007 c 1,24,25
 330 1318.23828125 330 1318.23828125 330 1388.11914062 c 0,26,27
 330 1552 330 1552 442 1552 c 256,28,29
 554 1552 554 1552 554 1435.11914062 c 128,-1,30
 554 1318.23828125 554 1318.23828125 478 1007 c 1,31,32
 696.166992188 1084 696.166992188 1084 752.583007812 1084 c 0,0,1
EndSplineSet
EndChar

StartChar: daggerdbl
Encoding: 8225 8225 315
Width: 1095
Flags: W
LayerCount: 2
Fore
SplineSet
395 1395.5 m 0,0,1
 395 1552 395 1552 557 1552 c 256,2,3
 660.607421875 1552 660.607421875 1552 689.803710938 1497.5 c 128,-1,4
 719 1443 719 1443 719 1405 c 128,-1,5
 719 1367 719 1367 709.5 1323 c 128,-1,6
 700 1279 700 1279 686 1232 c 128,-1,7
 672 1185 672 1185 656.5 1137.5 c 128,-1,8
 641 1090 641 1090 628 1047 c 1,9,10
 868.922851562 1134 868.922851562 1134 931.961914062 1134 c 0,11,12
 1066 1134 1066 1134 1066 1014.5 c 128,-1,13
 1066 895 1066 895 910.577148438 895 c 0,14,15
 854.154296875 895 854.154296875 895 628 979 c 1,16,-1
 628 535 l 1,17,18
 847.692382812 619 847.692382812 619 907.345703125 619 c 0,19,20
 1066 619 1066 619 1066 500 c 256,21,22
 1066 381 1066 381 935.5 381 c 0,23,24
 849.142578125 381 849.142578125 381 628 467 c 1,25,26
 719 159 719 159 719 114 c 0,27,28
 719 -38 719 -38 557 -38 c 256,29,30
 453.36328125 -38 453.36328125 -38 424.181640625 15.5 c 128,-1,31
 395 69 395 69 395 107 c 128,-1,32
 395 145 395 145 404.5 189.5 c 128,-1,33
 414 234 414 234 428 281.5 c 128,-1,34
 442 329 442 329 457.5 376 c 128,-1,35
 473 423 473 423 486 467 c 1,36,37
 264.857421875 381 264.857421875 381 205.428710938 381 c 0,38,39
 48 381 48 381 48 500 c 256,40,41
 48 619 48 619 173 619 c 0,42,43
 259.845703125 619 259.845703125 619 486 535 c 1,44,-1
 486 979 l 1,45,46
 259.845703125 895 259.845703125 895 203.422851562 895 c 0,47,48
 48 895 48 895 48 1014.1171875 c 0,49,50
 48 1067 48 1067 83.5 1100.5 c 128,-1,51
 119 1134 119 1134 164.5 1134 c 128,-1,52
 210 1134 210 1134 250.5 1125.5 c 128,-1,53
 291 1117 291 1117 331.5 1104 c 128,-1,54
 372 1091 372 1091 411 1075.5 c 128,-1,55
 450 1060 450 1060 486 1047 c 1,56,57
 395 1348 395 1348 395 1395.5 c 0,0,1
EndSplineSet
EndChar

StartChar: bullet
Encoding: 8226 8226 316
Width: 929
Flags: W
LayerCount: 2
Fore
SplineSet
845 663.7109375 m 128,-1,1
 845 516.06640625 845 516.06640625 748.669921875 407.033203125 c 128,-1,2
 652.33984375 298 652.33984375 298 474.150390625 298 c 128,-1,3
 295.9609375 298 295.9609375 298 193.48046875 405.762695312 c 128,-1,4
 91 513.525390625 91 513.525390625 91 662 c 256,5,6
 91 903.13671875 91 903.13671875 312 998.5 c 0,7,8
 385 1030 385 1030 519.475585938 1030 c 128,-1,9
 653.951171875 1030 653.951171875 1030 749.475585938 920.677734375 c 128,-1,0
 845 811.35546875 845 811.35546875 845 663.7109375 c 128,-1,1
EndSplineSet
EndChar

StartChar: ellipsis
Encoding: 8230 8230 317
Width: 1698
Flags: W
LayerCount: 2
Fore
SplineSet
408 117 m 256,0,1
 408 -37 408 -37 234.280273438 -37 c 0,2,3
 183.560546875 -37 183.560546875 -37 138.780273438 6.7138671875 c 128,-1,4
 94 50.4287109375 94 50.4287109375 94 117 c 256,5,6
 94 221.771484375 94 221.771484375 187.5 259.5 c 0,7,8
 216 271 216 271 250 271 c 256,9,10
 357.473632812 271 357.473632812 271 396 179.5 c 0,11,12
 408 151 408 151 408 117 c 256,0,1
1015 117 m 256,13,14
 1015 -37 1015 -37 841.280273438 -37 c 0,15,16
 790.560546875 -37 790.560546875 -37 745.780273438 6.7138671875 c 128,-1,17
 701 50.4287109375 701 50.4287109375 701 117 c 256,18,19
 701 221.771484375 701 221.771484375 794.5 259.5 c 0,20,21
 823 271 823 271 857 271 c 256,22,23
 964.473632812 271 964.473632812 271 1003 179.5 c 0,24,25
 1015 151 1015 151 1015 117 c 256,13,14
1622 117 m 256,26,27
 1622 -37 1622 -37 1448.28027344 -37 c 0,28,29
 1397.56054688 -37 1397.56054688 -37 1352.78027344 6.7138671875 c 128,-1,30
 1308 50.4287109375 1308 50.4287109375 1308 117 c 256,31,32
 1308 221.771484375 1308 221.771484375 1401.5 259.5 c 0,33,34
 1430 271 1430 271 1464 271 c 256,35,36
 1571.47363281 271 1571.47363281 271 1610 179.5 c 0,37,38
 1622 151 1622 151 1622 117 c 256,26,27
EndSplineSet
EndChar

StartChar: guilsinglleft
Encoding: 8249 8249 318
Width: 745
Flags: W
LayerCount: 2
Fore
SplineSet
676 245 m 0,0,1
 676 178 676 178 607 178 c 0,2,3
 565.142578125 178 565.142578125 178 536 202 c 1,4,-1
 109 574 l 2,5,6
 42 632.87890625 42 632.87890625 42 716 c 256,7,8
 42 800.852539062 42 800.852539062 109 858 c 2,9,-1
 536 1229 l 1,10,11
 573.5 1254 573.5 1254 606.25 1254 c 0,12,13
 676 1254 676 1254 676 1187 c 0,14,15
 676 1163.27246094 676 1163.27246094 650 1116 c 1,16,-1
 283 716 l 1,17,-1
 650 316 l 1,18,19
 676 271.090820312 676 271.090820312 676 245 c 0,0,1
EndSplineSet
EndChar

StartChar: guilsinglright
Encoding: 8250 8250 319
Width: 747
Flags: W
LayerCount: 2
Fore
SplineSet
87 1188.13671875 m 0,0,1
 87 1254 87 1254 156.75 1254 c 0,2,3
 189.5 1254 189.5 1254 227 1229 c 1,4,-1
 654 858 l 2,5,6
 721 800.852539062 721 800.852539062 721 716 c 256,7,8
 721 632.87890625 721 632.87890625 654 574 c 2,9,-1
 227 202 l 1,10,11
 197.857421875 178 197.857421875 178 156 178 c 0,12,13
 87 178 87 178 87 245 c 0,14,15
 87 271.090820312 87 271.090820312 113 316 c 1,16,-1
 480 716 l 1,17,-1
 113 1116 l 1,18,19
 87 1163.27246094 87 1163.27246094 87 1188.13671875 c 0,0,1
EndSplineSet
EndChar

StartChar: Euro
Encoding: 8364 8364 320
Width: 1464
Flags: W
LayerCount: 2
Fore
SplineSet
1052 650 m 1,0,-1
 1052 549 l 1,1,-1
 52 549 l 1,2,-1
 52 650 l 1,3,-1
 1052 650 l 1,0,-1
52 823 m 1,4,-1
 52 927 l 1,5,-1
 1052 928 l 1,6,-1
 1052 824 l 1,7,-1
 52 823 l 1,4,-1
1389 534 m 1,8,9
 1389 147.302734375 1389 147.302734375 1287.71679688 62.5068359375 c 128,-1,10
 1186.43359375 -22.2880859375 1186.43359375 -22.2880859375 1059.21679688 -29.1435546875 c 128,-1,11
 932 -36 932 -36 742.451171875 -36 c 128,-1,12
 552.90234375 -36 552.90234375 -36 430.887695312 -0.009765625 c 128,-1,13
 308.873046875 35.98046875 308.873046875 35.98046875 253.936523438 166.337890625 c 128,-1,14
 199 296.6953125 199 296.6953125 199 594 c 2,15,-1
 199 903 l 2,16,17
 199 1331.16699219 199 1331.16699219 320.099609375 1432.08300781 c 128,-1,18
 441.200195312 1533 441.200195312 1533 754.775390625 1533 c 128,-1,19
 1068.3515625 1533 1068.3515625 1533 1178.31933594 1500.70800781 c 128,-1,20
 1288.28808594 1468.41503906 1288.28808594 1468.41503906 1338.64355469 1349.98535156 c 128,-1,21
 1389 1231.55566406 1389 1231.55566406 1389 963 c 1,22,-1
 1178 963 l 1,23,24
 1174.97167969 1274.96289062 1174.97167969 1274.96289062 1142.48535156 1311.98144531 c 0,25,26
 1086.30566406 1376 1086.30566406 1376 842.74609375 1376 c 128,-1,27
 599.185546875 1376 599.185546875 1376 528.536132812 1354.56738281 c 128,-1,28
 457.88671875 1333.13378906 457.88671875 1333.13378906 438.943359375 1246.65429688 c 128,-1,29
 420 1160.17382812 420 1160.17382812 420 903 c 2,30,-1
 420 594 l 2,31,32
 420 241.571289062 420 241.571289062 458.5 196.786132812 c 128,-1,33
 497 152 497 152 563.577148438 131.802734375 c 128,-1,34
 630.153320312 111.60546875 630.153320312 111.60546875 831.077148438 118.302734375 c 128,-1,35
 1032 125 1032 125 1088.28125 141.595703125 c 128,-1,36
 1144.56347656 158.19140625 1144.56347656 158.19140625 1160.15332031 229.907226562 c 128,-1,37
 1175.74414062 301.622070312 1175.74414062 301.622070312 1178 534 c 1,38,-1
 1389 534 l 1,8,9
EndSplineSet
EndChar

StartChar: trademark
Encoding: 8482 8482 321
Width: 1535
Flags: W
LayerCount: 2
Fore
SplineSet
550 1521 m 1,0,-1
 550 1400 l 1,1,-1
 380 1400 l 1,2,-1
 380 643 l 1,3,-1
 223 643 l 1,4,-1
 223 1400 l 1,5,-1
 54 1400 l 1,6,-1
 54 1521 l 1,7,-1
 550 1521 l 1,0,-1
811 643 m 1,8,-1
 646 643 l 1,9,-1
 646 1521 l 1,10,-1
 860 1521 l 1,11,-1
 1018 960 l 1,12,-1
 1178 1521 l 1,13,-1
 1389 1521 l 1,14,-1
 1389 643 l 1,15,-1
 1224 643 l 1,16,-1
 1224 1116 l 1,17,-1
 1075 643 l 1,18,-1
 958 643 l 1,19,-1
 811 1116 l 1,20,-1
 811 643 l 1,8,-1
EndSplineSet
EndChar

StartChar: exclam
Encoding: 33 33 322
Width: 519
Flags: W
LayerCount: 2
Fore
SplineSet
429 118 m 256,0,1
 429 -38 429 -38 263 -38 c 256,2,3
 154.193359375 -38 154.193359375 -38 112 54.5 c 0,4,5
 99 83 99 83 99 118 c 256,6,7
 99 224.166992188 99 224.166992188 199 262.5 c 0,8,9
 229 274 229 274 263 274 c 256,10,11
 374.758789062 274 374.758789062 274 416 182 c 0,12,13
 429 153 429 153 429 118 c 256,0,1
248.767578125 1556 m 0,14,15
 391 1556 391 1556 391 1405.5 c 0,16,17
 391 1322 391 1322 351.14453125 947.359375 c 128,-1,18
 311.2890625 572.71875 311.2890625 572.71875 294.14453125 549.859375 c 128,-1,19
 277 527 277 527 252.252441406 527 c 128,-1,20
 227.504882812 527 227.504882812 527 183.751953125 873.892578125 c 128,-1,21
 140 1220.78613281 140 1220.78613281 140 1388.39257812 c 128,-1,22
 140 1556 140 1556 248.767578125 1556 c 0,14,15
EndSplineSet
EndChar

StartChar: uni0326
Encoding: 806 806 323
Width: 689
Flags: W
LayerCount: 2
Fore
SplineSet
159 -311.5 m 0,0,1
 159 -241.578125 159 -241.578125 206.845703125 -186.2890625 c 128,-1,2
 254.692382812 -131 254.692382812 -131 333.071289062 -131 c 0,3,4
 411.451171875 -131 411.451171875 -131 470.725585938 -184.982421875 c 128,-1,5
 530 -238.963867188 530 -238.963867188 530 -364.008789062 c 0,6,7
 530 -489.052734375 530 -489.052734375 429.044921875 -597.526367188 c 128,-1,8
 328.088867188 -706 328.088867188 -706 175 -706 c 1,9,-1
 175 -638 l 1,10,11
 265.559570312 -638 265.559570312 -638 305 -548.5 c 0,12,13
 318 -519 318 -519 318 -479 c 1,14,15
 159 -463.48828125 159 -463.48828125 159 -311.5 c 0,0,1
EndSplineSet
EndChar

StartChar: quotedbl
Encoding: 34 34 325
Width: 737
Flags: W
LayerCount: 2
Fore
SplineSet
216 925 m 128,-1,1
 199 925 199 925 155 1089 c 128,-1,2
 111 1253 111 1253 111 1376.5 c 128,-1,3
 111 1500 111 1500 203.25 1500 c 0,4,5
 257 1500 257 1500 288.5 1468.5 c 128,-1,6
 320 1437 320 1437 320 1402.5 c 128,-1,7
 320 1368 320 1368 315 1335 c 128,-1,8
 310 1302 310 1302 302 1259.5 c 128,-1,9
 294 1217 294 1217 284.5 1168.5 c 128,-1,10
 275 1120 275 1120 266 1076.5 c 128,-1,11
 257 1033 257 1033 249.5 999.5 c 128,-1,12
 242 966 242 966 237.5 945.5 c 128,-1,0
 233 925 233 925 216 925 c 128,-1,1
529.75 1500 m 128,-1,14
 572 1500 572 1500 603.5 1468.5 c 128,-1,15
 635 1437 635 1437 635 1402.5 c 128,-1,16
 635 1368 635 1368 630 1335 c 128,-1,17
 625 1302 625 1302 617 1259.5 c 128,-1,18
 609 1217 609 1217 599.5 1168.5 c 128,-1,19
 590 1120 590 1120 570.948242188 1022.5 c 128,-1,20
 551.896484375 925 551.896484375 925 522.508789062 925 c 128,-1,21
 493.12109375 925 493.12109375 925 459.560546875 1146.5 c 128,-1,22
 426 1368 426 1368 426 1402.18945312 c 128,-1,23
 426 1436.37890625 426 1436.37890625 456.75 1468.18945312 c 128,-1,13
 487.5 1500 487.5 1500 529.75 1500 c 128,-1,14
EndSplineSet
EndChar

StartChar: fraction
Encoding: 8260 8260 326
Width: 703
Flags: W
LayerCount: 2
Fore
SplineSet
744 1499 m 1,0,-1
 86 0 l 1,1,-1
 -52 0 l 1,2,-1
 602 1499 l 1,3,-1
 744 1499 l 1,0,-1
EndSplineSet
EndChar

StartChar: florin
Encoding: 402 402 327
Width: 740
Flags: W
LayerCount: 2
Fore
SplineSet
458.857421875 1579 m 128,-1,1
 536.713867188 1579 536.713867188 1579 655 1561 c 1,2,-1
 655 1412 l 1,3,-1
 433 1412 l 1,4,-1
 433 855 l 1,5,-1
 651 855 l 1,6,-1
 651 736 l 1,7,-1
 433 736 l 1,8,-1
 433 -50 l 2,9,10
 433 -185 433 -185 390.666992188 -248.5 c 128,-1,11
 348.333007812 -312 348.333007812 -312 230.309570312 -312 c 128,-1,12
 112.286132812 -312 112.286132812 -312 -6 -294 c 1,13,-1
 -6 -145 l 1,14,-1
 216 -145 l 1,15,-1
 216 736 l 1,16,-1
 33 736 l 1,17,-1
 33 855 l 1,18,-1
 216 855 l 1,19,-1
 214 1271 l 1,20,21
 214 1501.92285156 214 1501.92285156 329 1555 c 0,22,0
 381 1579 381 1579 458.857421875 1579 c 128,-1,1
EndSplineSet
EndChar

StartChar: periodcentered
Encoding: 183 183 328
Width: 526
Flags: W
LayerCount: 2
Fore
SplineSet
425 682 m 256,0,1
 425 528 425 528 251.280273438 528 c 0,2,3
 200.560546875 528 200.560546875 528 155.780273438 571.713867188 c 128,-1,4
 111 615.428710938 111 615.428710938 111 682 c 256,5,6
 111 786.771484375 111 786.771484375 204.5 824.5 c 0,7,8
 233 836 233 836 267 836 c 256,9,10
 374.473632812 836 374.473632812 836 413 744.5 c 0,11,12
 425 716 425 716 425 682 c 256,0,1
EndSplineSet
EndChar

StartChar: fi
Encoding: 64257 64257 329
Width: 1277
Flags: W
LayerCount: 2
Fore
SplineSet
470.428710938 1579 m 128,-1,1
 543.857421875 1579 543.857421875 1579 675 1561 c 1,2,-1
 675 1412 l 1,3,-1
 433 1412 l 1,4,-1
 433 1147 l 1,5,-1
 1117 1147 l 1,6,-1
 1117 0 l 1,7,-1
 898 0 l 1,8,-1
 898 1028 l 1,9,-1
 433 1028 l 1,10,-1
 433 0 l 1,11,-1
 216 0 l 1,12,-1
 216 1028 l 1,13,-1
 73 1028 l 1,14,-1
 73 1147 l 1,15,-1
 216 1147 l 1,16,17
 216 1218 216 1218 214 1278 c 128,-1,18
 212 1338 212 1338 215.5 1386 c 128,-1,19
 219 1434 219 1434 231 1470 c 128,-1,20
 243 1506 243 1506 271.5 1530.5 c 128,-1,21
 300 1555 300 1555 348.5 1567 c 128,-1,0
 397 1579 397 1579 470.428710938 1579 c 128,-1,1
1117 1384 m 1,22,-1
 898 1384 l 1,23,-1
 898 1571 l 1,24,-1
 1117 1571 l 1,25,-1
 1117 1384 l 1,22,-1
EndSplineSet
EndChar

StartChar: fl
Encoding: 64258 64258 330
Width: 1263
Flags: W
LayerCount: 2
Fore
SplineSet
677 1579 m 128,-1,1
 970 1579 970 1579 1105 1561 c 1,2,-1
 1104 0 l 1,3,-1
 887 0 l 1,4,-1
 887 1412 l 1,5,-1
 432 1412 l 1,6,-1
 432 1147 l 1,7,-1
 650 1147 l 1,8,-1
 650 1028 l 1,9,-1
 432 1028 l 1,10,-1
 432 0 l 1,11,-1
 215 0 l 1,12,-1
 215 1028 l 1,13,-1
 72 1028 l 1,14,-1
 72 1147 l 1,15,-1
 215 1147 l 1,16,-1
 212 1296 l 1,17,18
 212 1505.52441406 212 1505.52441406 332.5 1557 c 0,19,0
 384 1579 384 1579 677 1579 c 128,-1,1
EndSplineSet
EndChar
